STARTFONT 2.1
FONT -FontForge-Grechen Fuemen-Book-R-Normal--12-120-75-75-P-60-ISO10646-1
SIZE 12 75 75
FONTBOUNDINGBOX 22 17 -3 -4
COMMENT "Generated by fontforge, http://fontforge.sourceforge.net"
COMMENT "Copyright 2003-2021 The Grechen Fuemen Project Authors (https://github.com/googlefonts/grechen-fuemen)"
STARTPROPERTIES 39
FOUNDRY "FontForge"
FAMILY_NAME "Grechen Fuemen"
WEIGHT_NAME "Book"
SLANT "R"
SETWIDTH_NAME "Normal"
ADD_STYLE_NAME ""
PIXEL_SIZE 12
POINT_SIZE 120
RESOLUTION_X 75
RESOLUTION_Y 75
SPACING "P"
AVERAGE_WIDTH 60
CHARSET_REGISTRY "ISO10646"
CHARSET_ENCODING "1"
FONTNAME_REGISTRY ""
CHARSET_COLLECTIONS "ISO8859-2 ISO8859-9 ISO8859-4 ISO10646-1"
FONT_NAME "GrechenFuemen-Regular"
FACE_NAME "Grechen Fuemen Regular"
COPYRIGHT "Copyright 2003-2021 The Grechen Fuemen Project Authors (https://github.com/googlefonts/grechen-fuemen)"
FONT_VERSION "1.010; ttfautohint (v1.8.3)"
FONT_ASCENT 10
FONT_DESCENT 2
UNDERLINE_POSITION -2
UNDERLINE_THICKNESS 1
X_HEIGHT 3
CAP_HEIGHT 6
RAW_ASCENT 800
RAW_DESCENT 200
NORM_SPACE 4
RELATIVE_WEIGHT 40
RELATIVE_SETWIDTH 50
SUPERSCRIPT_X 0
SUPERSCRIPT_Y 4
SUPERSCRIPT_SIZE 7
SUBSCRIPT_X 0
SUBSCRIPT_Y 0
SUBSCRIPT_SIZE 7
AVG_LOWERCASE_WIDTH 54
AVG_UPPERCASE_WIDTH 82
ENDPROPERTIES
CHARS 620
STARTCHAR CR
ENCODING 13
SWIDTH 600 0
DWIDTH 7 0
BBX 1 1 0 0
BITMAP
00
ENDCHAR
STARTCHAR space
ENCODING 32
SWIDTH 320 0
DWIDTH 4 0
BBX 1 1 0 0
BITMAP
00
ENDCHAR
STARTCHAR exclam
ENCODING 33
SWIDTH 294 0
DWIDTH 4 0
BBX 4 6 0 0
BITMAP
30
30
20
40
00
C0
ENDCHAR
STARTCHAR quotedbl
ENCODING 34
SWIDTH 583 0
DWIDTH 7 0
BBX 4 2 3 5
BITMAP
F0
A0
ENDCHAR
STARTCHAR numbersign
ENCODING 35
SWIDTH 921 0
DWIDTH 11 0
BBX 11 8 0 0
BITMAP
0260
0480
3FE0
1100
FFC0
2400
2400
3600
ENDCHAR
STARTCHAR dollar
ENCODING 36
SWIDTH 750 0
DWIDTH 9 0
BBX 9 10 0 -2
BITMAP
0400
0F80
3480
2400
1400
0C00
0B00
FE00
0800
0800
ENDCHAR
STARTCHAR percent
ENCODING 37
SWIDTH 542 0
DWIDTH 7 0
BBX 7 7 0 0
BITMAP
3E
54
68
50
2C
54
98
ENDCHAR
STARTCHAR ampersand
ENCODING 38
SWIDTH 511 0
DWIDTH 6 0
BBX 6 8 0 0
BITMAP
08
34
28
30
50
94
98
E4
ENDCHAR
STARTCHAR quotesingle
ENCODING 39
SWIDTH 199 0
DWIDTH 2 0
BBX 1 2 1 4
BITMAP
80
80
ENDCHAR
STARTCHAR parenleft
ENCODING 40
SWIDTH 442 0
DWIDTH 5 0
BBX 5 7 0 -1
BITMAP
38
40
40
80
80
80
60
ENDCHAR
STARTCHAR parenright
ENCODING 41
SWIDTH 455 0
DWIDTH 5 0
BBX 5 7 1 0
BITMAP
20
10
08
08
10
10
E0
ENDCHAR
STARTCHAR asterisk
ENCODING 42
SWIDTH 430 0
DWIDTH 5 0
BBX 4 4 1 4
BITMAP
40
E0
F0
E0
ENDCHAR
STARTCHAR plus
ENCODING 43
SWIDTH 430 0
DWIDTH 5 0
BBX 5 4 1 2
BITMAP
20
20
F8
40
ENDCHAR
STARTCHAR comma
ENCODING 44
SWIDTH 240 0
DWIDTH 3 0
BBX 2 2 0 -1
BITMAP
40
80
ENDCHAR
STARTCHAR hyphen
ENCODING 45
SWIDTH 407 0
DWIDTH 5 0
BBX 5 1 0 1
BITMAP
F8
ENDCHAR
STARTCHAR period
ENCODING 46
SWIDTH 193 0
DWIDTH 2 0
BBX 2 1 0 0
BITMAP
C0
ENDCHAR
STARTCHAR slash
ENCODING 47
SWIDTH 542 0
DWIDTH 7 0
BBX 7 7 0 0
BITMAP
02
04
08
10
20
40
80
ENDCHAR
STARTCHAR zero
ENCODING 48
SWIDTH 665 0
DWIDTH 8 0
BBX 6 7 1 0
BITMAP
3C
48
84
84
84
88
F0
ENDCHAR
STARTCHAR one
ENCODING 49
SWIDTH 412 0
DWIDTH 5 0
BBX 5 7 0 0
BITMAP
08
30
50
20
20
40
F0
ENDCHAR
STARTCHAR two
ENCODING 50
SWIDTH 644 0
DWIDTH 8 0
BBX 7 8 0 0
BITMAP
0C
32
22
02
04
C8
B2
DE
ENDCHAR
STARTCHAR three
ENCODING 51
SWIDTH 586 0
DWIDTH 7 0
BBX 7 7 0 0
BITMAP
3C
42
04
3C
44
84
78
ENDCHAR
STARTCHAR four
ENCODING 52
SWIDTH 595 0
DWIDTH 7 0
BBX 7 7 0 0
BITMAP
06
1C
24
FE
08
10
18
ENDCHAR
STARTCHAR five
ENCODING 53
SWIDTH 519 0
DWIDTH 6 0
BBX 7 7 0 0
BITMAP
3E
60
40
38
08
18
E0
ENDCHAR
STARTCHAR six
ENCODING 54
SWIDTH 529 0
DWIDTH 6 0
BBX 5 7 1 0
BITMAP
38
40
F0
88
88
90
E0
ENDCHAR
STARTCHAR seven
ENCODING 55
SWIDTH 513 0
DWIDTH 6 0
BBX 6 9 1 -2
BITMAP
7C
88
10
10
20
40
80
80
80
ENDCHAR
STARTCHAR eight
ENCODING 56
SWIDTH 535 0
DWIDTH 6 0
BBX 7 7 0 0
BITMAP
1C
26
38
48
84
88
70
ENDCHAR
STARTCHAR nine
ENCODING 57
SWIDTH 537 0
DWIDTH 6 0
BBX 5 7 1 0
BITMAP
38
48
B8
D0
20
20
60
ENDCHAR
STARTCHAR colon
ENCODING 58
SWIDTH 467 0
DWIDTH 6 0
BBX 2 3 2 0
BITMAP
40
00
C0
ENDCHAR
STARTCHAR semicolon
ENCODING 59
SWIDTH 240 0
DWIDTH 3 0
BBX 3 5 0 -1
BITMAP
20
20
00
40
C0
ENDCHAR
STARTCHAR less
ENCODING 60
SWIDTH 446 0
DWIDTH 5 0
BBX 3 5 1 1
BITMAP
20
20
C0
40
20
ENDCHAR
STARTCHAR equal
ENCODING 61
SWIDTH 430 0
DWIDTH 5 0
BBX 5 3 0 1
BITMAP
F8
00
F8
ENDCHAR
STARTCHAR greater
ENCODING 62
SWIDTH 446 0
DWIDTH 5 0
BBX 3 5 1 1
BITMAP
80
40
20
40
80
ENDCHAR
STARTCHAR question
ENCODING 63
SWIDTH 665 0
DWIDTH 8 0
BBX 7 7 1 0
BITMAP
7C
86
18
20
40
00
60
ENDCHAR
STARTCHAR at
ENCODING 64
SWIDTH 898 0
DWIDTH 11 0
BBX 9 7 1 0
BITMAP
1F80
2C80
D080
AE80
B380
8100
7E00
ENDCHAR
STARTCHAR A
ENCODING 65
SWIDTH 577 0
DWIDTH 7 0
BBX 7 8 0 0
BITMAP
08
0C
14
24
7E
44
84
84
ENDCHAR
STARTCHAR B
ENCODING 66
SWIDTH 675 0
DWIDTH 8 0
BBX 9 7 0 0
BITMAP
3F00
7080
2300
5C00
4200
8200
BC00
ENDCHAR
STARTCHAR C
ENCODING 67
SWIDTH 819 0
DWIDTH 10 0
BBX 9 7 1 0
BITMAP
0F80
3880
6000
8000
8000
8180
7E00
ENDCHAR
STARTCHAR D
ENCODING 68
SWIDTH 1018 0
DWIDTH 12 0
BBX 13 7 -1 0
BITMAP
3FE0
4410
CC08
0808
1008
1030
1FC0
ENDCHAR
STARTCHAR E
ENCODING 69
SWIDTH 679 0
DWIDTH 8 0
BBX 7 7 1 0
BITMAP
1E
60
40
FC
80
82
7C
ENDCHAR
STARTCHAR F
ENCODING 70
SWIDTH 581 0
DWIDTH 7 0
BBX 9 8 1 0
BITMAP
7800
9E00
9180
3000
7800
2000
4000
2000
ENDCHAR
STARTCHAR G
ENCODING 71
SWIDTH 882 0
DWIDTH 11 0
BBX 10 7 0 0
BITMAP
0F80
3000
6000
C7C0
8180
4100
3E00
ENDCHAR
STARTCHAR H
ENCODING 72
SWIDTH 688 0
DWIDTH 8 0
BBX 9 7 0 0
BITMAP
2000
2180
4100
7F00
8100
8200
8000
ENDCHAR
STARTCHAR I
ENCODING 73
SWIDTH 404 0
DWIDTH 5 0
BBX 6 7 0 0
BITMAP
7C
10
20
20
20
40
F8
ENDCHAR
STARTCHAR J
ENCODING 74
SWIDTH 582 0
DWIDTH 7 0
BBX 8 9 0 -2
BITMAP
17
0C
04
0C
08
08
90
90
60
ENDCHAR
STARTCHAR K
ENCODING 75
SWIDTH 645 0
DWIDTH 8 0
BBX 8 8 1 -1
BITMAP
03
CE
D8
A0
C0
B0
88
84
ENDCHAR
STARTCHAR L
ENCODING 76
SWIDTH 582 0
DWIDTH 7 0
BBX 7 6 0 0
BITMAP
30
20
20
20
40
FE
ENDCHAR
STARTCHAR M
ENCODING 77
SWIDTH 978 0
DWIDTH 12 0
BBX 11 8 0 0
BITMAP
2000
2000
2C00
7440
64A0
4520
8520
8620
ENDCHAR
STARTCHAR N
ENCODING 78
SWIDTH 688 0
DWIDTH 8 0
BBX 8 7 1 0
BITMAP
41
42
62
92
92
8A
84
ENDCHAR
STARTCHAR O
ENCODING 79
SWIDTH 830 0
DWIDTH 10 0
BBX 10 7 0 0
BITMAP
1E00
2580
4040
8040
C080
4180
3E00
ENDCHAR
STARTCHAR P
ENCODING 80
SWIDTH 691 0
DWIDTH 8 0
BBX 9 7 0 0
BITMAP
7F00
3080
2300
5C00
4000
8000
8000
ENDCHAR
STARTCHAR Q
ENCODING 81
SWIDTH 819 0
DWIDTH 10 0
BBX 10 9 0 -2
BITMAP
1E00
2700
4080
8040
8080
4100
2600
7800
0780
ENDCHAR
STARTCHAR R
ENCODING 82
SWIDTH 703 0
DWIDTH 8 0
BBX 9 7 0 0
BITMAP
1E00
7180
2100
5E00
5800
8400
8300
ENDCHAR
STARTCHAR S
ENCODING 83
SWIDTH 750 0
DWIDTH 9 0
BBX 9 7 0 0
BITMAP
0F80
3080
2000
1000
0C00
0300
FE00
ENDCHAR
STARTCHAR T
ENCODING 84
SWIDTH 753 0
DWIDTH 9 0
BBX 10 7 1 0
BITMAP
FE00
85C0
0800
0800
1000
1000
1000
ENDCHAR
STARTCHAR U
ENCODING 85
SWIDTH 549 0
DWIDTH 7 0
BBX 7 7 0 0
BITMAP
30
22
44
4C
48
98
68
ENDCHAR
STARTCHAR V
ENCODING 86
SWIDTH 792 0
DWIDTH 10 0
BBX 9 7 1 0
BITMAP
3180
2080
4100
4200
C400
C800
7000
ENDCHAR
STARTCHAR W
ENCODING 87
SWIDTH 1039 0
DWIDTH 12 0
BBX 14 8 1 0
BITMAP
000C
C010
C310
4520
4940
5140
6180
4100
ENDCHAR
STARTCHAR X
ENCODING 88
SWIDTH 794 0
DWIDTH 10 0
BBX 11 8 0 -1
BITMAP
3060
4980
8A00
0C00
1400
2640
4380
8000
ENDCHAR
STARTCHAR Y
ENCODING 89
SWIDTH 537 0
DWIDTH 6 0
BBX 7 9 0 -3
BITMAP
06
86
44
4C
28
10
10
20
40
ENDCHAR
STARTCHAR Z
ENCODING 90
SWIDTH 540 0
DWIDTH 6 0
BBX 7 7 0 -1
BITMAP
3E
44
18
30
40
FC
04
ENDCHAR
STARTCHAR bracketleft
ENCODING 91
SWIDTH 279 0
DWIDTH 3 0
BBX 2 10 1 -1
BITMAP
C0
80
80
80
80
80
80
80
80
C0
ENDCHAR
STARTCHAR backslash
ENCODING 92
SWIDTH 633 0
DWIDTH 8 0
BBX 7 7 0 0
BITMAP
80
40
20
10
08
04
02
ENDCHAR
STARTCHAR bracketright
ENCODING 93
SWIDTH 279 0
DWIDTH 3 0
BBX 2 10 1 -1
BITMAP
C0
40
40
40
40
40
40
40
40
C0
ENDCHAR
STARTCHAR asciicircum
ENCODING 94
SWIDTH 562 0
DWIDTH 7 0
BBX 4 2 1 4
BITMAP
20
D0
ENDCHAR
STARTCHAR underscore
ENCODING 95
SWIDTH 677 0
DWIDTH 8 0
BBX 8 1 0 -1
BITMAP
FF
ENDCHAR
STARTCHAR grave
ENCODING 96
SWIDTH 213 0
DWIDTH 3 0
BBX 2 2 0 4
BITMAP
80
40
ENDCHAR
STARTCHAR a
ENCODING 97
SWIDTH 517 0
DWIDTH 6 0
BBX 6 4 0 0
BITMAP
3C
60
5C
E4
ENDCHAR
STARTCHAR b
ENCODING 98
SWIDTH 551 0
DWIDTH 7 0
BBX 6 6 0 0
BITMAP
20
40
78
84
8C
F0
ENDCHAR
STARTCHAR c
ENCODING 99
SWIDTH 456 0
DWIDTH 5 0
BBX 6 4 0 0
BITMAP
78
40
84
78
ENDCHAR
STARTCHAR d
ENCODING 100
SWIDTH 563 0
DWIDTH 7 0
BBX 7 6 0 0
BITMAP
06
02
1C
64
CC
F4
ENDCHAR
STARTCHAR e
ENCODING 101
SWIDTH 413 0
DWIDTH 5 0
BBX 5 4 0 0
BITMAP
70
F8
80
70
ENDCHAR
STARTCHAR f
ENCODING 102
SWIDTH 311 0
DWIDTH 4 0
BBX 5 6 0 0
BITMAP
38
60
F0
40
80
80
ENDCHAR
STARTCHAR g
ENCODING 103
SWIDTH 563 0
DWIDTH 7 0
BBX 6 7 0 -3
BITMAP
3C
44
9C
E4
08
48
70
ENDCHAR
STARTCHAR h
ENCODING 104
SWIDTH 512 0
DWIDTH 6 0
BBX 6 6 0 0
BITMAP
30
60
58
64
C4
84
ENDCHAR
STARTCHAR i
ENCODING 105
SWIDTH 250 0
DWIDTH 3 0
BBX 2 5 1 0
BITMAP
C0
00
80
80
80
ENDCHAR
STARTCHAR j
ENCODING 106
SWIDTH 280 0
DWIDTH 3 0
BBX 6 8 -3 -3
BITMAP
04
08
08
08
08
08
90
E0
ENDCHAR
STARTCHAR k
ENCODING 107
SWIDTH 470 0
DWIDTH 6 0
BBX 4 7 1 0
BITMAP
20
40
40
B0
C0
A0
90
ENDCHAR
STARTCHAR l
ENCODING 108
SWIDTH 266 0
DWIDTH 3 0
BBX 4 6 0 0
BITMAP
30
60
40
40
80
80
ENDCHAR
STARTCHAR m
ENCODING 109
SWIDTH 790 0
DWIDTH 9 0
BBX 9 4 0 0
BITMAP
4000
7B00
EC80
8000
ENDCHAR
STARTCHAR n
ENCODING 110
SWIDTH 562 0
DWIDTH 7 0
BBX 6 4 0 0
BITMAP
78
64
44
84
ENDCHAR
STARTCHAR o
ENCODING 111
SWIDTH 440 0
DWIDTH 5 0
BBX 5 4 0 0
BITMAP
60
B8
88
F0
ENDCHAR
STARTCHAR p
ENCODING 112
SWIDTH 591 0
DWIDTH 7 0
BBX 7 7 0 -3
BITMAP
20
5C
62
8C
90
80
80
ENDCHAR
STARTCHAR q
ENCODING 113
SWIDTH 563 0
DWIDTH 7 0
BBX 6 7 0 -3
BITMAP
38
40
9C
E8
08
08
08
ENDCHAR
STARTCHAR r
ENCODING 114
SWIDTH 351 0
DWIDTH 4 0
BBX 5 4 0 0
BITMAP
18
E0
40
C0
ENDCHAR
STARTCHAR s
ENCODING 115
SWIDTH 429 0
DWIDTH 5 0
BBX 5 4 0 0
BITMAP
78
C0
20
F0
ENDCHAR
STARTCHAR t
ENCODING 116
SWIDTH 269 0
DWIDTH 3 0
BBX 4 6 0 0
BITMAP
20
60
70
40
80
40
ENDCHAR
STARTCHAR u
ENCODING 117
SWIDTH 475 0
DWIDTH 6 0
BBX 6 4 0 0
BITMAP
20
48
58
EC
ENDCHAR
STARTCHAR v
ENCODING 118
SWIDTH 523 0
DWIDTH 6 0
BBX 5 4 1 0
BITMAP
88
90
E0
40
ENDCHAR
STARTCHAR w
ENCODING 119
SWIDTH 771 0
DWIDTH 9 0
BBX 9 4 0 0
BITMAP
4900
5880
E500
4200
ENDCHAR
STARTCHAR x
ENCODING 120
SWIDTH 446 0
DWIDTH 5 0
BBX 5 4 0 0
BITMAP
48
70
70
98
ENDCHAR
STARTCHAR y
ENCODING 121
SWIDTH 494 0
DWIDTH 6 0
BBX 5 6 0 -2
BITMAP
08
88
50
30
20
40
ENDCHAR
STARTCHAR z
ENCODING 122
SWIDTH 453 0
DWIDTH 5 0
BBX 5 5 0 -1
BITMAP
78
30
60
F8
08
ENDCHAR
STARTCHAR braceleft
ENCODING 123
SWIDTH 365 0
DWIDTH 4 0
BBX 3 10 1 -1
BITMAP
20
40
40
40
C0
40
80
80
80
80
ENDCHAR
STARTCHAR bar
ENCODING 124
SWIDTH 279 0
DWIDTH 3 0
BBX 1 10 1 -1
BITMAP
80
80
80
80
80
80
80
80
80
80
ENDCHAR
STARTCHAR braceright
ENCODING 125
SWIDTH 334 0
DWIDTH 4 0
BBX 4 11 0 -1
BITMAP
20
10
10
20
20
20
20
40
20
40
80
ENDCHAR
STARTCHAR asciitilde
ENCODING 126
SWIDTH 562 0
DWIDTH 7 0
BBX 5 2 1 4
BITMAP
E8
B0
ENDCHAR
STARTCHAR uni00A0
ENCODING 160
SWIDTH 320 0
DWIDTH 4 0
BBX 1 1 0 0
BITMAP
00
ENDCHAR
STARTCHAR exclamdown
ENCODING 161
SWIDTH 342 0
DWIDTH 4 0
BBX 4 6 0 -3
BITMAP
30
20
20
20
40
C0
ENDCHAR
STARTCHAR cent
ENCODING 162
SWIDTH 488 0
DWIDTH 6 0
BBX 4 10 1 -1
BITMAP
10
10
20
70
A0
A0
B0
40
40
40
ENDCHAR
STARTCHAR sterling
ENCODING 163
SWIDTH 724 0
DWIDTH 9 0
BBX 8 9 0 0
BITMAP
0E
12
10
20
20
7C
20
20
DF
ENDCHAR
STARTCHAR currency
ENCODING 164
SWIDTH 592 0
DWIDTH 7 0
BBX 6 5 1 0
BITMAP
7C
48
48
78
84
ENDCHAR
STARTCHAR yen
ENCODING 165
SWIDTH 570 0
DWIDTH 7 0
BBX 7 9 0 -3
BITMAP
06
84
84
4C
48
70
78
20
40
ENDCHAR
STARTCHAR brokenbar
ENCODING 166
SWIDTH 279 0
DWIDTH 3 0
BBX 1 9 1 -1
BITMAP
80
80
80
00
00
80
80
80
80
ENDCHAR
STARTCHAR section
ENCODING 167
SWIDTH 935 0
DWIDTH 11 0
BBX 11 9 0 -2
BITMAP
07E0
0820
1800
6C00
6300
1080
0F80
0600
FC00
ENDCHAR
STARTCHAR dieresis
ENCODING 168
SWIDTH 270 0
DWIDTH 3 0
BBX 3 1 0 5
BITMAP
A0
ENDCHAR
STARTCHAR copyright
ENCODING 169
SWIDTH 830 0
DWIDTH 10 0
BBX 10 8 0 -1
BITMAP
1E00
2500
4C80
9040
9340
4C80
6100
1E00
ENDCHAR
STARTCHAR ordfeminine
ENCODING 170
SWIDTH 376 0
DWIDTH 5 0
BBX 4 3 0 6
BITMAP
30
50
F0
ENDCHAR
STARTCHAR guillemotleft
ENCODING 171
SWIDTH 477 0
DWIDTH 6 0
BBX 5 5 1 2
BITMAP
28
50
A0
50
50
ENDCHAR
STARTCHAR logicalnot
ENCODING 172
SWIDTH 600 0
DWIDTH 7 0
BBX 7 3 0 0
BITMAP
FE
02
04
ENDCHAR
STARTCHAR uni00AD
ENCODING 173
SWIDTH 324 0
DWIDTH 4 0
BBX 4 1 0 1
BITMAP
F0
ENDCHAR
STARTCHAR registered
ENCODING 174
SWIDTH 535 0
DWIDTH 6 0
BBX 6 6 0 1
BITMAP
38
54
AC
B4
5C
30
ENDCHAR
STARTCHAR macron
ENCODING 175
SWIDTH 291 0
DWIDTH 3 0
BBX 3 1 0 5
BITMAP
E0
ENDCHAR
STARTCHAR degree
ENCODING 176
SWIDTH 413 0
DWIDTH 5 0
BBX 3 3 1 5
BITMAP
60
A0
40
ENDCHAR
STARTCHAR plusminus
ENCODING 177
SWIDTH 489 0
DWIDTH 6 0
BBX 5 7 1 -1
BITMAP
20
20
F8
40
40
00
E0
ENDCHAR
STARTCHAR uni00B2
ENCODING 178
SWIDTH 378 0
DWIDTH 5 0
BBX 4 4 0 3
BITMAP
70
10
A0
F0
ENDCHAR
STARTCHAR uni00B3
ENCODING 179
SWIDTH 370 0
DWIDTH 4 0
BBX 3 4 1 3
BITMAP
E0
40
A0
C0
ENDCHAR
STARTCHAR acute
ENCODING 180
SWIDTH 213 0
DWIDTH 3 0
BBX 2 2 0 4
BITMAP
40
80
ENDCHAR
STARTCHAR uni00B5
ENCODING 181
SWIDTH 475 0
DWIDTH 6 0
BBX 6 7 0 -3
BITMAP
20
48
58
EC
80
80
80
ENDCHAR
STARTCHAR paragraph
ENCODING 182
SWIDTH 691 0
DWIDTH 8 0
BBX 6 9 4 -2
BITMAP
3C
D8
98
A8
68
30
50
50
60
ENDCHAR
STARTCHAR periodcentered
ENCODING 183
SWIDTH 303 0
DWIDTH 4 0
BBX 1 1 0 3
BITMAP
80
ENDCHAR
STARTCHAR cedilla
ENCODING 184
SWIDTH 200 0
DWIDTH 2 0
BBX 2 2 0 -2
BITMAP
40
C0
ENDCHAR
STARTCHAR uni00B9
ENCODING 185
SWIDTH 288 0
DWIDTH 3 0
BBX 3 4 0 3
BITMAP
20
60
40
C0
ENDCHAR
STARTCHAR ordmasculine
ENCODING 186
SWIDTH 377 0
DWIDTH 5 0
BBX 3 3 1 6
BITMAP
C0
A0
C0
ENDCHAR
STARTCHAR guillemotright
ENCODING 187
SWIDTH 477 0
DWIDTH 6 0
BBX 5 5 1 2
BITMAP
50
50
68
50
A0
ENDCHAR
STARTCHAR onequarter
ENCODING 188
SWIDTH 725 0
DWIDTH 9 0
BBX 8 6 0 0
BITMAP
62
44
C9
16
2F
42
ENDCHAR
STARTCHAR onehalf
ENCODING 189
SWIDTH 775 0
DWIDTH 9 0
BBX 8 7 0 0
BITMAP
22
64
48
D3
21
46
07
ENDCHAR
STARTCHAR threequarters
ENCODING 190
SWIDTH 765 0
DWIDTH 9 0
BBX 7 7 1 0
BITMAP
42
A4
E8
B2
E6
4E
04
ENDCHAR
STARTCHAR questiondown
ENCODING 191
SWIDTH 665 0
DWIDTH 8 0
BBX 7 7 0 -3
BITMAP
0C
00
08
18
60
C2
FC
ENDCHAR
STARTCHAR Agrave
ENCODING 192
SWIDTH 577 0
DWIDTH 7 0
BBX 7 10 0 0
BITMAP
18
04
08
0C
14
24
7E
44
84
84
ENDCHAR
STARTCHAR Aacute
ENCODING 193
SWIDTH 577 0
DWIDTH 7 0
BBX 7 10 0 0
BITMAP
06
08
08
0C
14
24
7E
44
84
84
ENDCHAR
STARTCHAR Acircumflex
ENCODING 194
SWIDTH 577 0
DWIDTH 7 0
BBX 7 10 0 0
BITMAP
0C
12
08
0C
14
24
7E
44
84
84
ENDCHAR
STARTCHAR Atilde
ENCODING 195
SWIDTH 577 0
DWIDTH 7 0
BBX 7 10 0 0
BITMAP
1A
04
08
0C
14
24
7E
44
84
84
ENDCHAR
STARTCHAR Adieresis
ENCODING 196
SWIDTH 577 0
DWIDTH 7 0
BBX 7 9 0 0
BITMAP
1E
08
0C
14
24
7E
44
84
84
ENDCHAR
STARTCHAR Aring
ENCODING 197
SWIDTH 577 0
DWIDTH 7 0
BBX 7 10 0 0
BITMAP
0C
0C
08
0C
14
24
7E
44
84
84
ENDCHAR
STARTCHAR AE
ENCODING 198
SWIDTH 1049 0
DWIDTH 13 0
BBX 12 9 0 0
BITMAP
0800
0C00
0CF0
1500
2600
7FE0
4400
8410
83E0
ENDCHAR
STARTCHAR Ccedilla
ENCODING 199
SWIDTH 819 0
DWIDTH 10 0
BBX 9 10 1 -3
BITMAP
0F80
3880
6000
8000
8000
8180
6E00
1000
1000
7000
ENDCHAR
STARTCHAR Egrave
ENCODING 200
SWIDTH 679 0
DWIDTH 8 0
BBX 7 9 1 0
BITMAP
18
04
1E
60
40
FC
80
82
7C
ENDCHAR
STARTCHAR Eacute
ENCODING 201
SWIDTH 679 0
DWIDTH 8 0
BBX 7 9 1 0
BITMAP
06
08
1E
60
40
FC
80
82
7C
ENDCHAR
STARTCHAR Ecircumflex
ENCODING 202
SWIDTH 679 0
DWIDTH 8 0
BBX 7 9 1 0
BITMAP
0C
14
1A
60
40
FC
80
82
7C
ENDCHAR
STARTCHAR Edieresis
ENCODING 203
SWIDTH 679 0
DWIDTH 8 0
BBX 7 8 1 0
BITMAP
14
1A
60
40
FC
80
82
7C
ENDCHAR
STARTCHAR Igrave
ENCODING 204
SWIDTH 404 0
DWIDTH 5 0
BBX 6 9 0 0
BITMAP
10
08
7C
10
20
20
20
40
F8
ENDCHAR
STARTCHAR Iacute
ENCODING 205
SWIDTH 404 0
DWIDTH 5 0
BBX 6 9 0 0
BITMAP
04
08
7C
10
20
20
20
40
F8
ENDCHAR
STARTCHAR Icircumflex
ENCODING 206
SWIDTH 404 0
DWIDTH 5 0
BBX 6 9 0 0
BITMAP
08
14
78
10
20
20
20
40
F8
ENDCHAR
STARTCHAR Idieresis
ENCODING 207
SWIDTH 404 0
DWIDTH 5 0
BBX 6 8 0 0
BITMAP
14
78
10
20
20
20
40
F8
ENDCHAR
STARTCHAR Eth
ENCODING 208
SWIDTH 1018 0
DWIDTH 12 0
BBX 13 7 -1 0
BITMAP
3FE0
4410
CC08
0808
3C08
1030
1FC0
ENDCHAR
STARTCHAR Ntilde
ENCODING 209
SWIDTH 688 0
DWIDTH 8 0
BBX 8 9 1 0
BITMAP
1E
00
41
42
62
92
92
8A
84
ENDCHAR
STARTCHAR Ograve
ENCODING 210
SWIDTH 830 0
DWIDTH 10 0
BBX 10 9 0 0
BITMAP
0C00
0200
1E00
2580
4040
8040
C080
4180
3E00
ENDCHAR
STARTCHAR Oacute
ENCODING 211
SWIDTH 830 0
DWIDTH 10 0
BBX 10 9 0 0
BITMAP
0200
0400
1E00
2580
4040
8040
C080
4180
3E00
ENDCHAR
STARTCHAR Ocircumflex
ENCODING 212
SWIDTH 830 0
DWIDTH 10 0
BBX 10 9 0 0
BITMAP
0400
0B00
1E00
2580
4040
8040
C080
4180
3E00
ENDCHAR
STARTCHAR Otilde
ENCODING 213
SWIDTH 830 0
DWIDTH 10 0
BBX 10 9 0 0
BITMAP
0D00
0200
1E00
2580
4040
8040
C080
4180
3E00
ENDCHAR
STARTCHAR Odieresis
ENCODING 214
SWIDTH 830 0
DWIDTH 10 0
BBX 10 8 0 0
BITMAP
0A00
1E00
2580
4040
8040
C080
4180
3E00
ENDCHAR
STARTCHAR multiply
ENCODING 215
SWIDTH 537 0
DWIDTH 6 0
BBX 6 5 0 0
BITMAP
64
28
30
50
88
ENDCHAR
STARTCHAR Oslash
ENCODING 216
SWIDTH 830 0
DWIDTH 10 0
BBX 10 7 0 0
BITMAP
1F00
2380
4440
8840
9080
6180
5E00
ENDCHAR
STARTCHAR Ugrave
ENCODING 217
SWIDTH 549 0
DWIDTH 7 0
BBX 7 9 0 0
BITMAP
08
04
30
22
44
4C
48
98
68
ENDCHAR
STARTCHAR Uacute
ENCODING 218
SWIDTH 549 0
DWIDTH 7 0
BBX 7 9 0 0
BITMAP
02
04
30
22
44
4C
48
98
68
ENDCHAR
STARTCHAR Ucircumflex
ENCODING 219
SWIDTH 549 0
DWIDTH 7 0
BBX 8 9 0 0
BITMAP
04
0B
30
22
44
4C
48
98
68
ENDCHAR
STARTCHAR Udieresis
ENCODING 220
SWIDTH 549 0
DWIDTH 7 0
BBX 7 8 0 0
BITMAP
0A
30
22
44
4C
48
98
68
ENDCHAR
STARTCHAR Yacute
ENCODING 221
SWIDTH 537 0
DWIDTH 6 0
BBX 7 12 0 -3
BITMAP
18
20
00
06
86
44
4C
28
10
10
20
40
ENDCHAR
STARTCHAR Thorn
ENCODING 222
SWIDTH 691 0
DWIDTH 8 0
BBX 7 8 0 -1
BITMAP
30
3C
22
42
4C
70
80
80
ENDCHAR
STARTCHAR germandbls
ENCODING 223
SWIDTH 577 0
DWIDTH 7 0
BBX 8 10 -1 -3
BITMAP
07
09
53
24
28
26
5F
40
40
80
ENDCHAR
STARTCHAR agrave
ENCODING 224
SWIDTH 517 0
DWIDTH 6 0
BBX 6 6 0 0
BITMAP
20
18
3C
60
5C
E4
ENDCHAR
STARTCHAR aacute
ENCODING 225
SWIDTH 517 0
DWIDTH 6 0
BBX 6 6 0 0
BITMAP
04
08
3C
60
5C
E4
ENDCHAR
STARTCHAR acircumflex
ENCODING 226
SWIDTH 517 0
DWIDTH 6 0
BBX 6 6 0 0
BITMAP
08
14
3C
60
5C
E4
ENDCHAR
STARTCHAR atilde
ENCODING 227
SWIDTH 517 0
DWIDTH 6 0
BBX 6 5 0 0
BITMAP
1C
3C
60
5C
E4
ENDCHAR
STARTCHAR adieresis
ENCODING 228
SWIDTH 517 0
DWIDTH 6 0
BBX 6 6 0 0
BITMAP
14
00
3C
60
5C
E4
ENDCHAR
STARTCHAR aring
ENCODING 229
SWIDTH 517 0
DWIDTH 6 0
BBX 6 6 0 0
BITMAP
0C
18
3C
60
5C
E4
ENDCHAR
STARTCHAR ae
ENCODING 230
SWIDTH 789 0
DWIDTH 9 0
BBX 10 4 0 0
BITMAP
3B80
47C0
9C00
E780
ENDCHAR
STARTCHAR ccedilla
ENCODING 231
SWIDTH 456 0
DWIDTH 5 0
BBX 6 6 0 -2
BITMAP
78
40
84
58
20
40
ENDCHAR
STARTCHAR egrave
ENCODING 232
SWIDTH 413 0
DWIDTH 5 0
BBX 5 6 0 0
BITMAP
40
20
70
F8
80
70
ENDCHAR
STARTCHAR eacute
ENCODING 233
SWIDTH 413 0
DWIDTH 5 0
BBX 5 6 0 0
BITMAP
08
10
70
F8
80
70
ENDCHAR
STARTCHAR ecircumflex
ENCODING 234
SWIDTH 413 0
DWIDTH 5 0
BBX 5 6 0 0
BITMAP
10
28
70
F8
80
70
ENDCHAR
STARTCHAR edieresis
ENCODING 235
SWIDTH 413 0
DWIDTH 5 0
BBX 5 6 0 0
BITMAP
38
00
70
F8
80
70
ENDCHAR
STARTCHAR igrave
ENCODING 236
SWIDTH 250 0
DWIDTH 3 0
BBX 2 6 0 0
BITMAP
80
40
00
40
40
40
ENDCHAR
STARTCHAR iacute
ENCODING 237
SWIDTH 250 0
DWIDTH 3 0
BBX 2 6 1 0
BITMAP
40
80
00
80
80
80
ENDCHAR
STARTCHAR icircumflex
ENCODING 238
SWIDTH 250 0
DWIDTH 3 0
BBX 4 6 0 0
BITMAP
40
B0
00
40
40
40
ENDCHAR
STARTCHAR idieresis
ENCODING 239
SWIDTH 250 0
DWIDTH 3 0
BBX 3 6 0 0
BITMAP
A0
00
00
40
40
40
ENDCHAR
STARTCHAR eth
ENCODING 240
SWIDTH 563 0
DWIDTH 7 0
BBX 7 8 0 0
BITMAP
08
0E
14
04
3C
44
88
F0
ENDCHAR
STARTCHAR ntilde
ENCODING 241
SWIDTH 562 0
DWIDTH 7 0
BBX 6 5 0 0
BITMAP
1C
78
64
44
84
ENDCHAR
STARTCHAR ograve
ENCODING 242
SWIDTH 440 0
DWIDTH 5 0
BBX 5 6 0 0
BITMAP
40
20
60
B8
88
F0
ENDCHAR
STARTCHAR oacute
ENCODING 243
SWIDTH 440 0
DWIDTH 5 0
BBX 5 6 0 0
BITMAP
10
20
60
B8
88
F0
ENDCHAR
STARTCHAR ocircumflex
ENCODING 244
SWIDTH 440 0
DWIDTH 5 0
BBX 5 6 0 0
BITMAP
20
58
60
B8
88
F0
ENDCHAR
STARTCHAR otilde
ENCODING 245
SWIDTH 440 0
DWIDTH 5 0
BBX 5 5 0 0
BITMAP
70
60
B8
88
F0
ENDCHAR
STARTCHAR odieresis
ENCODING 246
SWIDTH 440 0
DWIDTH 5 0
BBX 5 6 0 0
BITMAP
50
00
60
B8
88
F0
ENDCHAR
STARTCHAR divide
ENCODING 247
SWIDTH 430 0
DWIDTH 5 0
BBX 4 4 1 1
BITMAP
20
40
F0
40
ENDCHAR
STARTCHAR oslash
ENCODING 248
SWIDTH 440 0
DWIDTH 5 0
BBX 7 8 -1 -2
BITMAP
02
04
38
5C
54
78
40
80
ENDCHAR
STARTCHAR ugrave
ENCODING 249
SWIDTH 475 0
DWIDTH 6 0
BBX 6 6 0 0
BITMAP
20
18
20
48
58
EC
ENDCHAR
STARTCHAR uacute
ENCODING 250
SWIDTH 475 0
DWIDTH 6 0
BBX 6 6 0 0
BITMAP
04
18
20
48
58
EC
ENDCHAR
STARTCHAR ucircumflex
ENCODING 251
SWIDTH 475 0
DWIDTH 6 0
BBX 6 6 0 0
BITMAP
08
1C
20
48
58
EC
ENDCHAR
STARTCHAR udieresis
ENCODING 252
SWIDTH 475 0
DWIDTH 6 0
BBX 6 6 0 0
BITMAP
3C
00
20
48
58
EC
ENDCHAR
STARTCHAR yacute
ENCODING 253
SWIDTH 494 0
DWIDTH 6 0
BBX 5 8 0 -2
BITMAP
10
60
08
88
50
30
20
40
ENDCHAR
STARTCHAR thorn
ENCODING 254
SWIDTH 591 0
DWIDTH 7 0
BBX 7 9 0 -3
BITMAP
30
20
60
5C
62
8C
90
80
80
ENDCHAR
STARTCHAR ydieresis
ENCODING 255
SWIDTH 494 0
DWIDTH 6 0
BBX 5 8 0 -2
BITMAP
50
00
08
88
50
30
20
40
ENDCHAR
STARTCHAR Amacron
ENCODING 256
SWIDTH 577 0
DWIDTH 7 0
BBX 7 10 0 0
BITMAP
1E
00
08
0C
14
24
7E
44
84
84
ENDCHAR
STARTCHAR amacron
ENCODING 257
SWIDTH 517 0
DWIDTH 6 0
BBX 6 6 0 0
BITMAP
1C
00
3C
60
5C
E4
ENDCHAR
STARTCHAR Abreve
ENCODING 258
SWIDTH 577 0
DWIDTH 7 0
BBX 7 10 0 0
BITMAP
12
0C
08
0C
14
24
7E
44
84
84
ENDCHAR
STARTCHAR abreve
ENCODING 259
SWIDTH 517 0
DWIDTH 6 0
BBX 6 6 0 0
BITMAP
14
18
3C
60
5C
E4
ENDCHAR
STARTCHAR Aogonek
ENCODING 260
SWIDTH 577 0
DWIDTH 7 0
BBX 7 11 0 -3
BITMAP
08
0C
14
24
7E
44
84
84
04
04
06
ENDCHAR
STARTCHAR aogonek
ENCODING 261
SWIDTH 517 0
DWIDTH 6 0
BBX 7 6 0 -2
BITMAP
3C
60
5C
E4
0A
04
ENDCHAR
STARTCHAR Cacute
ENCODING 262
SWIDTH 819 0
DWIDTH 10 0
BBX 9 9 1 0
BITMAP
0300
0400
0F80
3880
6000
8000
8000
8180
7E00
ENDCHAR
STARTCHAR cacute
ENCODING 263
SWIDTH 456 0
DWIDTH 5 0
BBX 6 6 0 0
BITMAP
08
10
78
40
84
78
ENDCHAR
STARTCHAR Ccircumflex
ENCODING 264
SWIDTH 819 0
DWIDTH 10 0
BBX 9 9 1 0
BITMAP
0600
0900
0F80
3880
6000
8000
8000
8180
7E00
ENDCHAR
STARTCHAR ccircumflex
ENCODING 265
SWIDTH 456 0
DWIDTH 5 0
BBX 6 6 0 0
BITMAP
10
30
78
40
84
78
ENDCHAR
STARTCHAR Cdotaccent
ENCODING 266
SWIDTH 819 0
DWIDTH 10 0
BBX 9 8 1 0
BITMAP
0400
0F80
3880
6000
8000
8000
8180
7E00
ENDCHAR
STARTCHAR cdotaccent
ENCODING 267
SWIDTH 456 0
DWIDTH 5 0
BBX 6 5 0 0
BITMAP
30
78
40
84
78
ENDCHAR
STARTCHAR Ccaron
ENCODING 268
SWIDTH 819 0
DWIDTH 10 0
BBX 9 10 1 0
BITMAP
0900
0600
0000
0F80
3880
6000
8000
8000
8180
7E00
ENDCHAR
STARTCHAR ccaron
ENCODING 269
SWIDTH 456 0
DWIDTH 5 0
BBX 6 7 0 0
BITMAP
68
30
00
78
40
84
78
ENDCHAR
STARTCHAR Dcaron
ENCODING 270
SWIDTH 1018 0
DWIDTH 12 0
BBX 13 10 -1 0
BITMAP
0120
00C0
0000
3FE0
4410
CC08
0808
1008
1030
1FC0
ENDCHAR
STARTCHAR dcaron
ENCODING 271
SWIDTH 563 0
DWIDTH 7 0
BBX 9 7 0 0
BITMAP
0080
0680
0300
1C00
6400
CC00
F400
ENDCHAR
STARTCHAR Dcroat
ENCODING 272
SWIDTH 1018 0
DWIDTH 12 0
BBX 13 7 -1 0
BITMAP
3FE0
4410
CC08
0808
3C08
1030
1FC0
ENDCHAR
STARTCHAR dcroat
ENCODING 273
SWIDTH 563 0
DWIDTH 7 0
BBX 8 6 0 0
BITMAP
06
0F
1C
64
CC
F4
ENDCHAR
STARTCHAR Emacron
ENCODING 274
SWIDTH 679 0
DWIDTH 8 0
BBX 7 9 1 0
BITMAP
1E
00
1E
60
40
FC
80
82
7C
ENDCHAR
STARTCHAR emacron
ENCODING 275
SWIDTH 413 0
DWIDTH 5 0
BBX 5 6 0 0
BITMAP
78
00
70
F8
80
70
ENDCHAR
STARTCHAR Ebreve
ENCODING 276
SWIDTH 679 0
DWIDTH 8 0
BBX 7 9 1 0
BITMAP
12
0C
12
60
40
FC
80
82
7C
ENDCHAR
STARTCHAR ebreve
ENCODING 277
SWIDTH 413 0
DWIDTH 5 0
BBX 5 6 0 0
BITMAP
28
30
70
F8
80
70
ENDCHAR
STARTCHAR Edotaccent
ENCODING 278
SWIDTH 679 0
DWIDTH 8 0
BBX 7 8 1 0
BITMAP
08
16
60
40
FC
80
82
7C
ENDCHAR
STARTCHAR edotaccent
ENCODING 279
SWIDTH 413 0
DWIDTH 5 0
BBX 5 5 0 0
BITMAP
30
70
F8
80
70
ENDCHAR
STARTCHAR Eogonek
ENCODING 280
SWIDTH 679 0
DWIDTH 8 0
BBX 7 10 1 -3
BITMAP
1E
60
40
FC
80
82
7C
04
08
0E
ENDCHAR
STARTCHAR eogonek
ENCODING 281
SWIDTH 413 0
DWIDTH 5 0
BBX 5 6 0 -2
BITMAP
70
F8
80
50
20
30
ENDCHAR
STARTCHAR Ecaron
ENCODING 282
SWIDTH 679 0
DWIDTH 8 0
BBX 7 10 1 0
BITMAP
12
0C
00
1E
60
40
FC
80
82
7C
ENDCHAR
STARTCHAR ecaron
ENCODING 283
SWIDTH 413 0
DWIDTH 5 0
BBX 5 6 0 0
BITMAP
38
00
70
F8
80
70
ENDCHAR
STARTCHAR Gcircumflex
ENCODING 284
SWIDTH 882 0
DWIDTH 11 0
BBX 10 9 0 0
BITMAP
0300
0480
0F80
3000
6000
C7C0
8180
4100
3E00
ENDCHAR
STARTCHAR gcircumflex
ENCODING 285
SWIDTH 563 0
DWIDTH 7 0
BBX 6 9 0 -3
BITMAP
08
14
3C
44
9C
E4
08
48
70
ENDCHAR
STARTCHAR Gbreve
ENCODING 286
SWIDTH 882 0
DWIDTH 11 0
BBX 10 9 0 0
BITMAP
0480
0300
0F80
3000
6000
C7C0
8180
4100
3E00
ENDCHAR
STARTCHAR gbreve
ENCODING 287
SWIDTH 563 0
DWIDTH 7 0
BBX 6 9 0 -3
BITMAP
14
18
3C
44
9C
E4
08
48
70
ENDCHAR
STARTCHAR Gdotaccent
ENCODING 288
SWIDTH 882 0
DWIDTH 11 0
BBX 10 8 0 0
BITMAP
0200
0F80
3000
6000
C7C0
8180
4100
3E00
ENDCHAR
STARTCHAR gdotaccent
ENCODING 289
SWIDTH 563 0
DWIDTH 7 0
BBX 6 8 0 -3
BITMAP
08
3C
44
9C
E4
08
48
70
ENDCHAR
STARTCHAR uni0122
ENCODING 290
SWIDTH 882 0
DWIDTH 11 0
BBX 10 9 0 -2
BITMAP
0F80
3000
6000
C7C0
8180
4100
3600
0800
1000
ENDCHAR
STARTCHAR uni0123
ENCODING 291
SWIDTH 563 0
DWIDTH 7 0
BBX 6 9 0 -3
BITMAP
08
10
3C
44
9C
E4
08
48
70
ENDCHAR
STARTCHAR Hcircumflex
ENCODING 292
SWIDTH 688 0
DWIDTH 8 0
BBX 9 9 0 0
BITMAP
0400
0A00
2000
2180
4100
7F00
8100
8200
8000
ENDCHAR
STARTCHAR hcircumflex
ENCODING 293
SWIDTH 512 0
DWIDTH 6 0
BBX 6 9 0 0
BITMAP
10
68
00
30
60
58
64
C4
84
ENDCHAR
STARTCHAR Hbar
ENCODING 294
SWIDTH 688 0
DWIDTH 8 0
BBX 9 7 0 0
BITMAP
2000
7F80
4100
7F00
8100
8200
8000
ENDCHAR
STARTCHAR hbar
ENCODING 295
SWIDTH 512 0
DWIDTH 6 0
BBX 6 6 0 0
BITMAP
30
F0
58
64
C4
84
ENDCHAR
STARTCHAR Itilde
ENCODING 296
SWIDTH 404 0
DWIDTH 5 0
BBX 6 9 0 0
BITMAP
1C
00
7C
10
20
20
20
40
F8
ENDCHAR
STARTCHAR itilde
ENCODING 297
SWIDTH 250 0
DWIDTH 3 0
BBX 3 5 0 0
BITMAP
E0
00
40
40
40
ENDCHAR
STARTCHAR Imacron
ENCODING 298
SWIDTH 404 0
DWIDTH 5 0
BBX 6 9 0 0
BITMAP
1C
00
7C
10
20
20
20
40
F8
ENDCHAR
STARTCHAR imacron
ENCODING 299
SWIDTH 250 0
DWIDTH 3 0
BBX 3 6 0 0
BITMAP
E0
00
00
40
40
40
ENDCHAR
STARTCHAR Ibreve
ENCODING 300
SWIDTH 404 0
DWIDTH 5 0
BBX 6 9 0 0
BITMAP
14
18
7C
10
20
20
20
40
F8
ENDCHAR
STARTCHAR ibreve
ENCODING 301
SWIDTH 250 0
DWIDTH 3 0
BBX 2 6 1 0
BITMAP
C0
C0
00
80
80
80
ENDCHAR
STARTCHAR Iogonek
ENCODING 302
SWIDTH 404 0
DWIDTH 5 0
BBX 6 10 0 -3
BITMAP
7C
10
20
20
20
40
F8
40
40
60
ENDCHAR
STARTCHAR iogonek
ENCODING 303
SWIDTH 250 0
DWIDTH 3 0
BBX 2 7 1 -2
BITMAP
80
00
80
80
80
80
C0
ENDCHAR
STARTCHAR Idotaccent
ENCODING 304
SWIDTH 404 0
DWIDTH 5 0
BBX 6 8 0 0
BITMAP
08
7C
10
20
20
20
40
F8
ENDCHAR
STARTCHAR dotlessi
ENCODING 305
SWIDTH 250 0
DWIDTH 3 0
BBX 1 3 1 0
BITMAP
80
80
80
ENDCHAR
STARTCHAR Jcircumflex
ENCODING 308
SWIDTH 582 0
DWIDTH 7 0
BBX 8 11 0 -2
BITMAP
02
0E
17
0C
04
0C
08
08
90
90
60
ENDCHAR
STARTCHAR jcircumflex
ENCODING 309
SWIDTH 280 0
DWIDTH 3 0
BBX 7 8 -3 -3
BITMAP
04
1E
08
08
08
08
90
E0
ENDCHAR
STARTCHAR uni0136
ENCODING 310
SWIDTH 645 0
DWIDTH 8 0
BBX 8 9 1 -2
BITMAP
03
CE
D8
A0
C0
B0
88
A4
20
ENDCHAR
STARTCHAR uni0137
ENCODING 311
SWIDTH 470 0
DWIDTH 6 0
BBX 4 9 1 -2
BITMAP
20
40
40
B0
C0
A0
90
20
40
ENDCHAR
STARTCHAR kgreenlandic
ENCODING 312
SWIDTH 470 0
DWIDTH 6 0
BBX 4 5 1 0
BITMAP
60
F0
C0
A0
90
ENDCHAR
STARTCHAR Lacute
ENCODING 313
SWIDTH 582 0
DWIDTH 7 0
BBX 7 9 0 0
BITMAP
18
20
00
30
20
20
20
40
FE
ENDCHAR
STARTCHAR lacute
ENCODING 314
SWIDTH 266 0
DWIDTH 3 0
BBX 5 9 0 0
BITMAP
08
10
00
30
60
40
40
80
80
ENDCHAR
STARTCHAR uni013B
ENCODING 315
SWIDTH 582 0
DWIDTH 7 0
BBX 7 8 0 -2
BITMAP
30
20
20
20
40
FE
10
10
ENDCHAR
STARTCHAR uni013C
ENCODING 316
SWIDTH 266 0
DWIDTH 3 0
BBX 5 8 -1 -2
BITMAP
18
30
20
20
40
40
40
C0
ENDCHAR
STARTCHAR Lcaron
ENCODING 317
SWIDTH 582 0
DWIDTH 7 0
BBX 7 7 0 0
BITMAP
04
34
20
20
20
40
FE
ENDCHAR
STARTCHAR lcaron
ENCODING 318
SWIDTH 266 0
DWIDTH 3 0
BBX 6 7 0 0
BITMAP
08
34
68
40
40
80
80
ENDCHAR
STARTCHAR Ldot
ENCODING 319
SWIDTH 582 0
DWIDTH 7 0
BBX 7 6 0 0
BITMAP
30
20
2C
20
40
FE
ENDCHAR
STARTCHAR ldot
ENCODING 320
SWIDTH 266 0
DWIDTH 3 0
BBX 4 6 0 0
BITMAP
30
60
50
40
80
80
ENDCHAR
STARTCHAR Lslash
ENCODING 321
SWIDTH 582 0
DWIDTH 7 0
BBX 7 6 0 0
BITMAP
30
20
20
30
C0
FE
ENDCHAR
STARTCHAR lslash
ENCODING 322
SWIDTH 266 0
DWIDTH 3 0
BBX 4 6 0 0
BITMAP
30
20
50
E0
40
80
ENDCHAR
STARTCHAR Nacute
ENCODING 323
SWIDTH 688 0
DWIDTH 8 0
BBX 8 9 1 0
BITMAP
04
08
41
42
62
92
92
8A
84
ENDCHAR
STARTCHAR nacute
ENCODING 324
SWIDTH 562 0
DWIDTH 7 0
BBX 6 6 0 0
BITMAP
04
08
78
64
44
84
ENDCHAR
STARTCHAR uni0145
ENCODING 325
SWIDTH 688 0
DWIDTH 8 0
BBX 8 9 1 -2
BITMAP
41
42
62
92
92
8A
84
20
20
ENDCHAR
STARTCHAR uni0146
ENCODING 326
SWIDTH 562 0
DWIDTH 7 0
BBX 6 6 0 -2
BITMAP
78
64
44
84
10
20
ENDCHAR
STARTCHAR Ncaron
ENCODING 327
SWIDTH 688 0
DWIDTH 8 0
BBX 8 10 1 0
BITMAP
22
14
08
41
42
62
92
92
8A
84
ENDCHAR
STARTCHAR ncaron
ENCODING 328
SWIDTH 562 0
DWIDTH 7 0
BBX 6 6 0 0
BITMAP
14
08
78
64
44
84
ENDCHAR
STARTCHAR Eng
ENCODING 330
SWIDTH 688 0
DWIDTH 8 0
BBX 8 10 1 -3
BITMAP
41
41
62
92
92
8A
84
84
48
30
ENDCHAR
STARTCHAR eng
ENCODING 331
SWIDTH 562 0
DWIDTH 7 0
BBX 6 7 0 -4
BITMAP
78
64
44
84
04
48
70
ENDCHAR
STARTCHAR Omacron
ENCODING 332
SWIDTH 830 0
DWIDTH 10 0
BBX 10 9 0 0
BITMAP
0E00
0000
1E00
2580
4040
8040
C080
4180
3E00
ENDCHAR
STARTCHAR omacron
ENCODING 333
SWIDTH 440 0
DWIDTH 5 0
BBX 5 6 0 0
BITMAP
70
00
60
B8
88
F0
ENDCHAR
STARTCHAR Obreve
ENCODING 334
SWIDTH 830 0
DWIDTH 10 0
BBX 10 9 0 0
BITMAP
0900
0600
1E00
2580
4040
8040
C080
4180
3E00
ENDCHAR
STARTCHAR obreve
ENCODING 335
SWIDTH 440 0
DWIDTH 5 0
BBX 5 6 0 0
BITMAP
48
30
60
B8
88
F0
ENDCHAR
STARTCHAR Ohungarumlaut
ENCODING 336
SWIDTH 830 0
DWIDTH 10 0
BBX 10 10 0 0
BITMAP
0500
0500
0000
1E00
2580
4040
8040
C080
4180
3E00
ENDCHAR
STARTCHAR ohungarumlaut
ENCODING 337
SWIDTH 440 0
DWIDTH 5 0
BBX 5 6 0 0
BITMAP
28
30
60
B8
88
F0
ENDCHAR
STARTCHAR OE
ENCODING 338
SWIDTH 1226 0
DWIDTH 15 0
BBX 15 7 0 0
BITMAP
1F3C
24C0
4080
81F8
8100
4182
3EFC
ENDCHAR
STARTCHAR oe
ENCODING 339
SWIDTH 706 0
DWIDTH 8 0
BBX 9 4 0 0
BITMAP
7F00
8E80
8800
FF00
ENDCHAR
STARTCHAR Racute
ENCODING 340
SWIDTH 703 0
DWIDTH 8 0
BBX 9 9 0 0
BITMAP
0300
0400
1E00
7180
2100
5E00
5800
8400
8300
ENDCHAR
STARTCHAR racute
ENCODING 341
SWIDTH 351 0
DWIDTH 4 0
BBX 5 6 0 0
BITMAP
10
60
18
E0
40
C0
ENDCHAR
STARTCHAR uni0156
ENCODING 342
SWIDTH 703 0
DWIDTH 8 0
BBX 9 9 0 -2
BITMAP
1E00
7180
2100
5E00
5800
8400
8300
1000
1000
ENDCHAR
STARTCHAR uni0157
ENCODING 343
SWIDTH 351 0
DWIDTH 4 0
BBX 5 6 0 -2
BITMAP
18
E0
40
C0
40
80
ENDCHAR
STARTCHAR Rcaron
ENCODING 344
SWIDTH 703 0
DWIDTH 8 0
BBX 9 10 0 0
BITMAP
0880
0700
0200
1E00
7180
2100
5E00
5800
8400
8300
ENDCHAR
STARTCHAR rcaron
ENCODING 345
SWIDTH 351 0
DWIDTH 4 0
BBX 5 6 0 0
BITMAP
70
18
20
C0
40
C0
ENDCHAR
STARTCHAR Sacute
ENCODING 346
SWIDTH 750 0
DWIDTH 9 0
BBX 9 9 0 0
BITMAP
0100
0200
0F80
3080
2000
1000
0C00
0300
FE00
ENDCHAR
STARTCHAR sacute
ENCODING 347
SWIDTH 429 0
DWIDTH 5 0
BBX 5 6 0 0
BITMAP
08
10
78
C0
20
F0
ENDCHAR
STARTCHAR Scircumflex
ENCODING 348
SWIDTH 750 0
DWIDTH 9 0
BBX 9 9 0 0
BITMAP
0200
0500
0E80
3080
2000
1000
0C00
0300
FE00
ENDCHAR
STARTCHAR scircumflex
ENCODING 349
SWIDTH 429 0
DWIDTH 5 0
BBX 5 6 0 0
BITMAP
10
30
78
C0
20
F0
ENDCHAR
STARTCHAR Scedilla
ENCODING 350
SWIDTH 750 0
DWIDTH 9 0
BBX 9 10 0 -3
BITMAP
0F80
3080
2000
1000
0C00
0300
FE00
2000
1000
7000
ENDCHAR
STARTCHAR scedilla
ENCODING 351
SWIDTH 429 0
DWIDTH 5 0
BBX 5 6 0 -2
BITMAP
78
C0
20
F0
40
C0
ENDCHAR
STARTCHAR Scaron
ENCODING 352
SWIDTH 750 0
DWIDTH 9 0
BBX 9 10 0 0
BITMAP
0480
0300
0000
0F80
3080
2000
1000
0C00
0300
FE00
ENDCHAR
STARTCHAR scaron
ENCODING 353
SWIDTH 429 0
DWIDTH 5 0
BBX 5 6 0 0
BITMAP
78
20
78
C0
20
F0
ENDCHAR
STARTCHAR uni0162
ENCODING 354
SWIDTH 753 0
DWIDTH 9 0
BBX 10 10 1 -3
BITMAP
FE00
85C0
0800
0800
1000
1000
1000
0000
1000
3000
ENDCHAR
STARTCHAR uni0163
ENCODING 355
SWIDTH 269 0
DWIDTH 3 0
BBX 4 8 0 -2
BITMAP
20
60
70
40
80
40
40
40
ENDCHAR
STARTCHAR Tcaron
ENCODING 356
SWIDTH 753 0
DWIDTH 9 0
BBX 10 9 1 0
BITMAP
0D00
0200
FE00
85C0
0800
0800
1000
1000
1000
ENDCHAR
STARTCHAR tcaron
ENCODING 357
SWIDTH 269 0
DWIDTH 3 0
BBX 5 7 0 0
BITMAP
08
28
68
70
40
80
40
ENDCHAR
STARTCHAR Tbar
ENCODING 358
SWIDTH 753 0
DWIDTH 9 0
BBX 10 7 1 0
BITMAP
FE00
85C0
0800
3C00
1000
1000
1000
ENDCHAR
STARTCHAR tbar
ENCODING 359
SWIDTH 269 0
DWIDTH 3 0
BBX 4 6 0 0
BITMAP
20
60
70
E0
80
40
ENDCHAR
STARTCHAR Utilde
ENCODING 360
SWIDTH 549 0
DWIDTH 7 0
BBX 7 9 0 0
BITMAP
0E
00
30
22
44
4C
48
98
68
ENDCHAR
STARTCHAR utilde
ENCODING 361
SWIDTH 475 0
DWIDTH 6 0
BBX 6 5 0 0
BITMAP
1C
20
48
58
EC
ENDCHAR
STARTCHAR Umacron
ENCODING 362
SWIDTH 549 0
DWIDTH 7 0
BBX 7 9 0 0
BITMAP
0E
00
30
22
44
4C
48
98
68
ENDCHAR
STARTCHAR umacron
ENCODING 363
SWIDTH 475 0
DWIDTH 6 0
BBX 6 6 0 0
BITMAP
38
00
20
48
58
EC
ENDCHAR
STARTCHAR Ubreve
ENCODING 364
SWIDTH 549 0
DWIDTH 7 0
BBX 7 9 0 0
BITMAP
0A
06
30
22
44
4C
48
98
68
ENDCHAR
STARTCHAR ubreve
ENCODING 365
SWIDTH 475 0
DWIDTH 6 0
BBX 6 6 0 0
BITMAP
24
18
20
48
58
EC
ENDCHAR
STARTCHAR Uring
ENCODING 366
SWIDTH 549 0
DWIDTH 7 0
BBX 7 9 0 0
BITMAP
06
04
30
22
44
4C
48
98
68
ENDCHAR
STARTCHAR uring
ENCODING 367
SWIDTH 475 0
DWIDTH 6 0
BBX 6 6 0 0
BITMAP
08
18
20
48
58
EC
ENDCHAR
STARTCHAR Uhungarumlaut
ENCODING 368
SWIDTH 549 0
DWIDTH 7 0
BBX 8 10 0 0
BITMAP
05
06
00
30
22
44
4C
48
98
68
ENDCHAR
STARTCHAR uhungarumlaut
ENCODING 369
SWIDTH 475 0
DWIDTH 6 0
BBX 6 6 0 0
BITMAP
14
18
20
48
58
EC
ENDCHAR
STARTCHAR Uogonek
ENCODING 370
SWIDTH 549 0
DWIDTH 7 0
BBX 7 10 0 -3
BITMAP
30
22
44
4C
48
98
68
08
08
0C
ENDCHAR
STARTCHAR uogonek
ENCODING 371
SWIDTH 475 0
DWIDTH 6 0
BBX 6 6 0 -2
BITMAP
20
48
58
EC
08
0C
ENDCHAR
STARTCHAR Wcircumflex
ENCODING 372
SWIDTH 1039 0
DWIDTH 12 0
BBX 14 8 1 0
BITMAP
010C
C690
C310
4520
4940
5140
6180
4100
ENDCHAR
STARTCHAR wcircumflex
ENCODING 373
SWIDTH 771 0
DWIDTH 9 0
BBX 9 6 0 0
BITMAP
0400
1E00
4900
5880
E500
4200
ENDCHAR
STARTCHAR Ycircumflex
ENCODING 374
SWIDTH 537 0
DWIDTH 6 0
BBX 7 12 0 -3
BITMAP
10
68
00
06
86
44
4C
28
10
10
20
40
ENDCHAR
STARTCHAR ycircumflex
ENCODING 375
SWIDTH 494 0
DWIDTH 6 0
BBX 5 8 0 -2
BITMAP
20
50
08
88
50
30
20
40
ENDCHAR
STARTCHAR Ydieresis
ENCODING 376
SWIDTH 537 0
DWIDTH 6 0
BBX 7 11 0 -3
BITMAP
28
00
06
86
44
4C
28
10
10
20
40
ENDCHAR
STARTCHAR Zacute
ENCODING 377
SWIDTH 540 0
DWIDTH 6 0
BBX 7 10 0 -1
BITMAP
04
08
00
3E
44
18
30
40
FC
04
ENDCHAR
STARTCHAR zacute
ENCODING 378
SWIDTH 453 0
DWIDTH 5 0
BBX 5 7 0 -1
BITMAP
10
20
78
30
60
F8
08
ENDCHAR
STARTCHAR Zdotaccent
ENCODING 379
SWIDTH 540 0
DWIDTH 6 0
BBX 7 9 0 -1
BITMAP
08
00
3E
44
18
30
40
FC
04
ENDCHAR
STARTCHAR zdotaccent
ENCODING 380
SWIDTH 453 0
DWIDTH 5 0
BBX 5 6 0 -1
BITMAP
20
78
30
60
F8
08
ENDCHAR
STARTCHAR Zcaron
ENCODING 381
SWIDTH 540 0
DWIDTH 6 0
BBX 7 11 0 -1
BITMAP
22
14
08
00
3E
44
18
30
40
FC
04
ENDCHAR
STARTCHAR zcaron
ENCODING 382
SWIDTH 453 0
DWIDTH 5 0
BBX 5 7 0 -1
BITMAP
48
30
78
30
60
F8
08
ENDCHAR
STARTCHAR uni018F
ENCODING 399
SWIDTH 756 0
DWIDTH 9 0
BBX 8 7 1 0
BITMAP
3C
42
01
7F
83
46
3C
ENDCHAR
STARTCHAR florin
ENCODING 402
SWIDTH 544 0
DWIDTH 7 0
BBX 9 9 -2 -3
BITMAP
0300
0680
0400
0B00
0800
0800
0800
9000
E000
ENDCHAR
STARTCHAR Ohorn
ENCODING 416
SWIDTH 830 0
DWIDTH 10 0
BBX 10 7 0 0
BITMAP
1E40
2580
4040
8040
C080
4180
3E00
ENDCHAR
STARTCHAR ohorn
ENCODING 417
SWIDTH 440 0
DWIDTH 5 0
BBX 5 4 0 0
BITMAP
68
B8
88
F0
ENDCHAR
STARTCHAR Uhorn
ENCODING 431
SWIDTH 549 0
DWIDTH 7 0
BBX 8 7 0 0
BITMAP
31
23
44
4C
48
98
68
ENDCHAR
STARTCHAR uhorn
ENCODING 432
SWIDTH 475 0
DWIDTH 6 0
BBX 6 4 0 0
BITMAP
24
4C
58
EC
ENDCHAR
STARTCHAR uni01C4
ENCODING 452
SWIDTH 1558 0
DWIDTH 19 0
BBX 20 11 -1 -1
BITMAP
000090
000060
000040
3FE000
4011F0
CC0A30
080840
100980
103300
1FC7E0
000010
ENDCHAR
STARTCHAR uni01C5
ENCODING 453
SWIDTH 1471 0
DWIDTH 18 0
BBX 18 7 -1 0
BITMAP
3FE000
441140
C80BC0
0808C0
100900
1033C0
1FC440
ENDCHAR
STARTCHAR uni01C6
ENCODING 454
SWIDTH 1016 0
DWIDTH 12 0
BBX 12 7 0 -1
BITMAP
06A0
0240
1DF0
6460
CC80
F5F0
0010
ENDCHAR
STARTCHAR uni01C7
ENCODING 455
SWIDTH 1164 0
DWIDTH 14 0
BBX 15 9 0 -2
BITMAP
002E
3018
2008
2018
2010
4010
FF20
0120
00C0
ENDCHAR
STARTCHAR uni01C8
ENCODING 456
SWIDTH 862 0
DWIDTH 10 0
BBX 10 9 0 -3
BITMAP
3000
2040
2080
2080
4080
FE80
0080
0900
0E00
ENDCHAR
STARTCHAR uni01C9
ENCODING 457
SWIDTH 546 0
DWIDTH 7 0
BBX 6 9 0 -3
BITMAP
30
6C
44
48
8C
88
08
88
70
ENDCHAR
STARTCHAR uni01CA
ENCODING 458
SWIDTH 1270 0
DWIDTH 15 0
BBX 15 9 1 -2
BITMAP
4126
4218
6208
9208
9210
8A10
8490
0120
00C0
ENDCHAR
STARTCHAR uni01CB
ENCODING 459
SWIDTH 968 0
DWIDTH 12 0
BBX 10 10 1 -3
BITMAP
4100
4200
6240
9240
9280
8AC0
8480
0080
0880
0700
ENDCHAR
STARTCHAR uni01CC
ENCODING 460
SWIDTH 842 0
DWIDTH 10 0
BBX 10 8 0 -3
BITMAP
0040
7880
6480
4480
8480
0080
0900
0E00
ENDCHAR
STARTCHAR uni01CD
ENCODING 461
SWIDTH 577 0
DWIDTH 7 0
BBX 7 11 0 0
BITMAP
12
0C
08
08
0C
14
24
7E
44
84
84
ENDCHAR
STARTCHAR uni01CE
ENCODING 462
SWIDTH 517 0
DWIDTH 6 0
BBX 6 6 0 0
BITMAP
14
08
3C
60
5C
E4
ENDCHAR
STARTCHAR uni01CF
ENCODING 463
SWIDTH 404 0
DWIDTH 5 0
BBX 7 10 0 0
BITMAP
16
08
00
7C
10
20
20
20
40
F8
ENDCHAR
STARTCHAR uni01D0
ENCODING 464
SWIDTH 250 0
DWIDTH 3 0
BBX 4 6 0 0
BITMAP
B0
40
00
40
40
40
ENDCHAR
STARTCHAR uni01D1
ENCODING 465
SWIDTH 830 0
DWIDTH 10 0
BBX 10 10 0 0
BITMAP
0900
0600
0400
1E00
2580
4040
8040
C080
4180
3E00
ENDCHAR
STARTCHAR uni01D1.dup1
ENCODING 466
SWIDTH 830 0
DWIDTH 10 0
BBX 10 10 0 0
BITMAP
0900
0600
0400
1E00
2580
4040
8040
C080
4180
3E00
ENDCHAR
STARTCHAR uni01D3
ENCODING 467
SWIDTH 549 0
DWIDTH 7 0
BBX 8 10 0 0
BITMAP
09
06
04
30
22
44
4C
48
98
68
ENDCHAR
STARTCHAR uni01D3.dup2
ENCODING 468
SWIDTH 549 0
DWIDTH 7 0
BBX 8 10 0 0
BITMAP
09
06
04
30
22
44
4C
48
98
68
ENDCHAR
STARTCHAR uni01D5
ENCODING 469
SWIDTH 549 0
DWIDTH 7 0
BBX 7 10 0 0
BITMAP
0E
00
0A
30
22
44
4C
48
98
68
ENDCHAR
STARTCHAR uni01D5.dup3
ENCODING 470
SWIDTH 549 0
DWIDTH 7 0
BBX 7 10 0 0
BITMAP
0E
00
0A
30
22
44
4C
48
98
68
ENDCHAR
STARTCHAR uni01D9
ENCODING 473
SWIDTH 549 0
DWIDTH 7 0
BBX 8 12 0 0
BITMAP
09
06
04
0A
00
30
22
44
4C
48
98
68
ENDCHAR
STARTCHAR uni01D9.dup4
ENCODING 474
SWIDTH 549 0
DWIDTH 7 0
BBX 8 12 0 0
BITMAP
09
06
04
0A
00
30
22
44
4C
48
98
68
ENDCHAR
STARTCHAR uni01DB
ENCODING 475
SWIDTH 549 0
DWIDTH 7 0
BBX 7 10 0 0
BITMAP
0C
02
0A
30
22
44
4C
48
98
68
ENDCHAR
STARTCHAR uni01DB.dup5
ENCODING 476
SWIDTH 549 0
DWIDTH 7 0
BBX 7 10 0 0
BITMAP
0C
02
0A
30
22
44
4C
48
98
68
ENDCHAR
STARTCHAR Gcaron
ENCODING 486
SWIDTH 882 0
DWIDTH 11 0
BBX 10 10 0 0
BITMAP
0480
0300
0000
0F80
3000
6000
C7C0
8180
4100
3E00
ENDCHAR
STARTCHAR gcaron
ENCODING 487
SWIDTH 563 0
DWIDTH 7 0
BBX 6 10 0 -3
BITMAP
14
08
00
3C
44
9C
E4
08
48
70
ENDCHAR
STARTCHAR uni01EA
ENCODING 490
SWIDTH 830 0
DWIDTH 10 0
BBX 10 10 0 -3
BITMAP
1E00
2580
4040
8040
C080
4180
3600
0800
1000
1800
ENDCHAR
STARTCHAR uni01EB
ENCODING 491
SWIDTH 440 0
DWIDTH 5 0
BBX 5 6 0 -2
BITMAP
60
B8
88
F0
80
C0
ENDCHAR
STARTCHAR Aringacute
ENCODING 506
SWIDTH 577 0
DWIDTH 7 0
BBX 7 12 0 0
BITMAP
06
08
0C
0C
08
0C
14
24
7E
44
84
84
ENDCHAR
STARTCHAR aringacute
ENCODING 507
SWIDTH 517 0
DWIDTH 6 0
BBX 6 8 0 0
BITMAP
04
04
0C
18
3C
60
5C
E4
ENDCHAR
STARTCHAR AEacute
ENCODING 508
SWIDTH 1049 0
DWIDTH 13 0
BBX 12 9 0 0
BITMAP
0840
0D80
0CF0
1500
2600
7FE0
4400
8410
83E0
ENDCHAR
STARTCHAR aeacute
ENCODING 509
SWIDTH 789 0
DWIDTH 9 0
BBX 10 6 0 0
BITMAP
0100
0200
3B80
47C0
9C00
E780
ENDCHAR
STARTCHAR Oslashacute
ENCODING 510
SWIDTH 830 0
DWIDTH 10 0
BBX 10 9 0 0
BITMAP
0300
0400
1F00
2380
4440
8840
9080
6180
5E00
ENDCHAR
STARTCHAR oslashacute
ENCODING 511
SWIDTH 440 0
DWIDTH 5 0
BBX 7 8 -1 -2
BITMAP
06
0C
38
5C
54
78
40
80
ENDCHAR
STARTCHAR uni0200
ENCODING 512
SWIDTH 577 0
DWIDTH 7 0
BBX 7 10 0 0
BITMAP
38
14
08
0C
14
24
7E
44
84
84
ENDCHAR
STARTCHAR uni0201
ENCODING 513
SWIDTH 517 0
DWIDTH 6 0
BBX 6 7 0 0
BITMAP
50
38
00
3C
60
5C
E4
ENDCHAR
STARTCHAR uni0202
ENCODING 514
SWIDTH 577 0
DWIDTH 7 0
BBX 7 10 0 0
BITMAP
0C
12
0C
0C
14
24
3E
44
84
84
ENDCHAR
STARTCHAR uni0203
ENCODING 515
SWIDTH 517 0
DWIDTH 6 0
BBX 6 6 0 0
BITMAP
1C
00
3C
60
5C
E4
ENDCHAR
STARTCHAR uni0204
ENCODING 516
SWIDTH 679 0
DWIDTH 8 0
BBX 7 10 1 0
BITMAP
30
28
14
1E
60
40
FC
80
82
7C
ENDCHAR
STARTCHAR uni0205
ENCODING 517
SWIDTH 413 0
DWIDTH 5 0
BBX 5 7 0 0
BITMAP
40
A0
50
70
F8
80
70
ENDCHAR
STARTCHAR uni0206
ENCODING 518
SWIDTH 679 0
DWIDTH 8 0
BBX 7 9 1 0
BITMAP
0C
12
1E
60
40
FC
80
82
7C
ENDCHAR
STARTCHAR uni0207
ENCODING 519
SWIDTH 413 0
DWIDTH 5 0
BBX 5 6 0 0
BITMAP
30
00
70
F8
80
70
ENDCHAR
STARTCHAR uni0208
ENCODING 520
SWIDTH 404 0
DWIDTH 5 0
BBX 6 10 0 0
BITMAP
50
28
10
7C
10
20
20
20
40
F8
ENDCHAR
STARTCHAR uni0209
ENCODING 521
SWIDTH 250 0
DWIDTH 3 0
BBX 3 6 -1 0
BITMAP
E0
60
00
20
20
20
ENDCHAR
STARTCHAR uni020A
ENCODING 522
SWIDTH 404 0
DWIDTH 5 0
BBX 6 9 0 0
BITMAP
08
14
78
10
20
20
20
40
F8
ENDCHAR
STARTCHAR uni020B
ENCODING 523
SWIDTH 250 0
DWIDTH 3 0
BBX 2 6 1 0
BITMAP
C0
C0
00
80
80
80
ENDCHAR
STARTCHAR uni020C
ENCODING 524
SWIDTH 830 0
DWIDTH 10 0
BBX 10 9 0 0
BITMAP
1C00
0A00
1E00
2580
4040
8040
C080
4180
3E00
ENDCHAR
STARTCHAR uni020D
ENCODING 525
SWIDTH 440 0
DWIDTH 5 0
BBX 5 6 0 0
BITMAP
C0
60
60
B8
88
F0
ENDCHAR
STARTCHAR uni020E
ENCODING 526
SWIDTH 830 0
DWIDTH 10 0
BBX 10 9 0 0
BITMAP
0600
0900
1E00
2580
4040
8040
C080
4180
3E00
ENDCHAR
STARTCHAR uni020F
ENCODING 527
SWIDTH 440 0
DWIDTH 5 0
BBX 5 6 0 0
BITMAP
30
50
60
B8
88
F0
ENDCHAR
STARTCHAR uni0210
ENCODING 528
SWIDTH 703 0
DWIDTH 8 0
BBX 9 9 0 0
BITMAP
1400
0A00
1E00
7180
2100
5E00
5800
8400
8300
ENDCHAR
STARTCHAR uni0211
ENCODING 529
SWIDTH 351 0
DWIDTH 4 0
BBX 6 7 -1 0
BITMAP
40
E0
30
0C
70
20
60
ENDCHAR
STARTCHAR uni0212
ENCODING 530
SWIDTH 703 0
DWIDTH 8 0
BBX 9 9 0 0
BITMAP
0600
0900
1E00
7180
2100
5E00
5800
8400
8300
ENDCHAR
STARTCHAR uni0213
ENCODING 531
SWIDTH 351 0
DWIDTH 4 0
BBX 5 5 0 1
BITMAP
60
18
E0
40
C0
ENDCHAR
STARTCHAR uni0214
ENCODING 532
SWIDTH 549 0
DWIDTH 7 0
BBX 7 10 0 0
BITMAP
28
14
08
30
22
44
4C
48
98
68
ENDCHAR
STARTCHAR uni0215
ENCODING 533
SWIDTH 475 0
DWIDTH 6 0
BBX 6 6 0 0
BITMAP
60
30
20
48
58
EC
ENDCHAR
STARTCHAR uni0216
ENCODING 534
SWIDTH 549 0
DWIDTH 7 0
BBX 7 10 0 0
BITMAP
06
0A
08
30
22
44
4C
48
98
68
ENDCHAR
STARTCHAR uni0217
ENCODING 535
SWIDTH 475 0
DWIDTH 6 0
BBX 6 6 0 0
BITMAP
18
24
40
48
D8
EC
ENDCHAR
STARTCHAR uni0218
ENCODING 536
SWIDTH 750 0
DWIDTH 9 0
BBX 9 9 0 -2
BITMAP
0F80
3080
2000
1000
0C00
0300
FE00
1000
3000
ENDCHAR
STARTCHAR uni0219
ENCODING 537
SWIDTH 429 0
DWIDTH 5 0
BBX 5 6 0 -2
BITMAP
78
C0
20
F0
20
40
ENDCHAR
STARTCHAR uni021A
ENCODING 538
SWIDTH 753 0
DWIDTH 9 0
BBX 10 10 1 -3
BITMAP
FE00
85C0
0800
0800
1000
1000
1000
0000
1000
3000
ENDCHAR
STARTCHAR uni021B
ENCODING 539
SWIDTH 269 0
DWIDTH 3 0
BBX 4 8 0 -2
BITMAP
20
60
70
40
80
40
40
40
ENDCHAR
STARTCHAR uni022A
ENCODING 554
SWIDTH 830 0
DWIDTH 10 0
BBX 10 10 0 0
BITMAP
0F00
0000
0A00
1E00
2580
4040
8040
C080
4180
3E00
ENDCHAR
STARTCHAR uni022B
ENCODING 555
SWIDTH 440 0
DWIDTH 5 0
BBX 5 7 0 0
BITMAP
70
50
00
60
B8
88
F0
ENDCHAR
STARTCHAR uni022C
ENCODING 556
SWIDTH 830 0
DWIDTH 10 0
BBX 10 10 0 0
BITMAP
0E00
0D00
0200
1E00
2580
4040
8040
C080
4180
3E00
ENDCHAR
STARTCHAR uni022D
ENCODING 557
SWIDTH 440 0
DWIDTH 5 0
BBX 5 7 0 0
BITMAP
78
00
70
60
B8
88
F0
ENDCHAR
STARTCHAR uni0230
ENCODING 560
SWIDTH 830 0
DWIDTH 10 0
BBX 10 10 0 0
BITMAP
0F00
0000
0400
1E00
2580
4040
8040
C080
4180
3E00
ENDCHAR
STARTCHAR uni0231
ENCODING 561
SWIDTH 440 0
DWIDTH 5 0
BBX 5 7 0 0
BITMAP
70
00
20
60
B8
88
F0
ENDCHAR
STARTCHAR uni0232
ENCODING 562
SWIDTH 537 0
DWIDTH 6 0
BBX 7 12 0 -3
BITMAP
78
00
00
06
86
44
4C
28
10
10
20
40
ENDCHAR
STARTCHAR uni0233
ENCODING 563
SWIDTH 494 0
DWIDTH 6 0
BBX 5 8 0 -2
BITMAP
70
00
08
88
50
30
20
40
ENDCHAR
STARTCHAR uni0237
ENCODING 567
SWIDTH 280 0
DWIDTH 3 0
BBX 5 6 -3 -3
BITMAP
08
08
08
08
90
E0
ENDCHAR
STARTCHAR uni0259
ENCODING 601
SWIDTH 413 0
DWIDTH 5 0
BBX 5 4 0 0
BITMAP
70
78
98
70
ENDCHAR
STARTCHAR uni02B9
ENCODING 697
SWIDTH 144 0
DWIDTH 2 0
BBX 2 3 0 5
BITMAP
80
40
80
ENDCHAR
STARTCHAR uni02BA
ENCODING 698
SWIDTH 285 0
DWIDTH 3 0
BBX 3 3 0 5
BITMAP
A0
60
A0
ENDCHAR
STARTCHAR uni02BC
ENCODING 700
SWIDTH 159 0
DWIDTH 2 0
BBX 2 3 0 5
BITMAP
40
40
80
ENDCHAR
STARTCHAR circumflex
ENCODING 710
SWIDTH 331 0
DWIDTH 4 0
BBX 4 2 0 4
BITMAP
20
F0
ENDCHAR
STARTCHAR caron
ENCODING 711
SWIDTH 331 0
DWIDTH 4 0
BBX 4 2 0 4
BITMAP
F0
40
ENDCHAR
STARTCHAR breve
ENCODING 728
SWIDTH 265 0
DWIDTH 3 0
BBX 3 2 0 4
BITMAP
A0
C0
ENDCHAR
STARTCHAR dotaccent
ENCODING 729
SWIDTH 99 0
DWIDTH 1 0
BBX 1 1 0 4
BITMAP
80
ENDCHAR
STARTCHAR ring
ENCODING 730
SWIDTH 189 0
DWIDTH 2 0
BBX 2 2 0 4
BITMAP
40
C0
ENDCHAR
STARTCHAR ogonek
ENCODING 731
SWIDTH 202 0
DWIDTH 2 0
BBX 2 2 0 -2
BITMAP
80
C0
ENDCHAR
STARTCHAR tilde
ENCODING 732
SWIDTH 321 0
DWIDTH 4 0
BBX 3 1 0 4
BITMAP
E0
ENDCHAR
STARTCHAR hungarumlaut
ENCODING 733
SWIDTH 257 0
DWIDTH 3 0
BBX 3 2 0 4
BITMAP
A0
C0
ENDCHAR
STARTCHAR gravecomb
ENCODING 768
SWIDTH 0 0
DWIDTH 0 0
BBX 2 2 0 4
BITMAP
80
40
ENDCHAR
STARTCHAR acutecomb
ENCODING 769
SWIDTH 0 0
DWIDTH 0 0
BBX 2 2 0 4
BITMAP
40
80
ENDCHAR
STARTCHAR uni0302
ENCODING 770
SWIDTH 0 0
DWIDTH 0 0
BBX 4 2 0 4
BITMAP
20
F0
ENDCHAR
STARTCHAR tildecomb
ENCODING 771
SWIDTH 0 0
DWIDTH 0 0
BBX 3 1 0 4
BITMAP
E0
ENDCHAR
STARTCHAR uni0304
ENCODING 772
SWIDTH 0 0
DWIDTH 0 0
BBX 3 1 0 5
BITMAP
E0
ENDCHAR
STARTCHAR uni0306
ENCODING 774
SWIDTH 0 0
DWIDTH 0 0
BBX 3 2 0 4
BITMAP
A0
C0
ENDCHAR
STARTCHAR uni0307
ENCODING 775
SWIDTH 0 0
DWIDTH 0 0
BBX 1 1 0 4
BITMAP
80
ENDCHAR
STARTCHAR uni0308
ENCODING 776
SWIDTH 0 0
DWIDTH 0 0
BBX 3 1 0 5
BITMAP
A0
ENDCHAR
STARTCHAR hookabovecomb
ENCODING 777
SWIDTH 0 0
DWIDTH 0 0
BBX 2 2 0 5
BITMAP
C0
40
ENDCHAR
STARTCHAR uni030A
ENCODING 778
SWIDTH 0 0
DWIDTH 0 0
BBX 2 2 0 4
BITMAP
40
C0
ENDCHAR
STARTCHAR uni030B
ENCODING 779
SWIDTH 0 0
DWIDTH 0 0
BBX 3 2 0 4
BITMAP
A0
C0
ENDCHAR
STARTCHAR uni030C
ENCODING 780
SWIDTH 0 0
DWIDTH 0 0
BBX 4 2 0 4
BITMAP
F0
40
ENDCHAR
STARTCHAR uni030F
ENCODING 783
SWIDTH 0 0
DWIDTH 0 0
BBX 3 3 0 4
BITMAP
40
A0
40
ENDCHAR
STARTCHAR uni0311
ENCODING 785
SWIDTH 0 0
DWIDTH 0 0
BBX 3 1 0 5
BITMAP
E0
ENDCHAR
STARTCHAR uni0312
ENCODING 786
SWIDTH 0 0
DWIDTH 0 0
BBX 1 2 0 4
BITMAP
80
80
ENDCHAR
STARTCHAR uni031B
ENCODING 795
SWIDTH 0 0
DWIDTH 0 0
BBX 2 2 0 3
BITMAP
40
80
ENDCHAR
STARTCHAR dotbelowcomb
ENCODING 803
SWIDTH 0 0
DWIDTH 0 0
BBX 1 1 0 -2
BITMAP
80
ENDCHAR
STARTCHAR uni0324
ENCODING 804
SWIDTH 0 0
DWIDTH 0 0
BBX 3 1 0 -1
BITMAP
A0
ENDCHAR
STARTCHAR uni0326
ENCODING 806
SWIDTH 0 0
DWIDTH 0 0
BBX 1 2 0 -2
BITMAP
80
80
ENDCHAR
STARTCHAR uni0327
ENCODING 807
SWIDTH 0 0
DWIDTH 0 0
BBX 2 2 0 -2
BITMAP
40
C0
ENDCHAR
STARTCHAR uni0328
ENCODING 808
SWIDTH 0 0
DWIDTH 0 0
BBX 2 2 0 -2
BITMAP
80
C0
ENDCHAR
STARTCHAR uni032E
ENCODING 814
SWIDTH 0 0
DWIDTH 0 0
BBX 3 2 0 -3
BITMAP
A0
C0
ENDCHAR
STARTCHAR uni0331
ENCODING 817
SWIDTH 0 0
DWIDTH 0 0
BBX 3 1 0 -2
BITMAP
E0
ENDCHAR
STARTCHAR uni0335
ENCODING 821
SWIDTH 0 0
DWIDTH 0 0
BBX 3 1 0 1
BITMAP
E0
ENDCHAR
STARTCHAR Wgrave
ENCODING 7808
SWIDTH 1039 0
DWIDTH 12 0
BBX 14 8 1 0
BITMAP
060C
C110
C310
4520
4940
5140
6180
4100
ENDCHAR
STARTCHAR wgrave
ENCODING 7809
SWIDTH 771 0
DWIDTH 9 0
BBX 9 6 0 0
BITMAP
1000
0C00
4900
5880
E500
4200
ENDCHAR
STARTCHAR Wacute
ENCODING 7810
SWIDTH 1039 0
DWIDTH 12 0
BBX 14 8 1 0
BITMAP
018C
C210
C310
4520
4940
5140
6180
4100
ENDCHAR
STARTCHAR wacute
ENCODING 7811
SWIDTH 771 0
DWIDTH 9 0
BBX 9 6 0 0
BITMAP
0200
0C00
4900
5880
E500
4200
ENDCHAR
STARTCHAR Wdieresis
ENCODING 7812
SWIDTH 1039 0
DWIDTH 12 0
BBX 14 8 1 0
BITMAP
000C
C390
C310
4520
4940
5140
6180
4100
ENDCHAR
STARTCHAR wdieresis
ENCODING 7813
SWIDTH 771 0
DWIDTH 9 0
BBX 9 6 0 0
BITMAP
1E00
0000
4900
5880
E500
4200
ENDCHAR
STARTCHAR uni1E9E
ENCODING 7838
SWIDTH 637 0
DWIDTH 8 0
BBX 7 8 0 -1
BITMAP
1E
22
46
48
84
84
BC
80
ENDCHAR
STARTCHAR uni1EA0
ENCODING 7840
SWIDTH 577 0
DWIDTH 7 0
BBX 7 10 0 -2
BITMAP
08
0C
14
24
7E
44
84
84
00
20
ENDCHAR
STARTCHAR uni1EA1
ENCODING 7841
SWIDTH 517 0
DWIDTH 6 0
BBX 6 6 0 -2
BITMAP
3C
60
5C
E4
00
10
ENDCHAR
STARTCHAR uni1EA2
ENCODING 7842
SWIDTH 577 0
DWIDTH 7 0
BBX 7 11 0 0
BITMAP
0C
04
00
08
0C
14
24
7E
44
84
84
ENDCHAR
STARTCHAR uni1EA3
ENCODING 7843
SWIDTH 517 0
DWIDTH 6 0
BBX 6 7 0 0
BITMAP
18
08
00
3C
60
5C
E4
ENDCHAR
STARTCHAR uni1EA4
ENCODING 7844
SWIDTH 577 0
DWIDTH 7 0
BBX 9 11 0 0
BITMAP
0080
0D00
1200
0800
0C00
1400
2400
7E00
4400
8400
8400
ENDCHAR
STARTCHAR uni1EA5
ENCODING 7845
SWIDTH 517 0
DWIDTH 6 0
BBX 8 7 0 0
BITMAP
01
0A
14
3C
60
5C
E4
ENDCHAR
STARTCHAR uni1EA6
ENCODING 7846
SWIDTH 577 0
DWIDTH 7 0
BBX 7 11 0 0
BITMAP
04
0E
12
08
0C
14
24
7E
44
84
84
ENDCHAR
STARTCHAR uni1EA7
ENCODING 7847
SWIDTH 517 0
DWIDTH 6 0
BBX 6 8 0 0
BITMAP
08
04
08
14
3C
60
5C
E4
ENDCHAR
STARTCHAR uni1EA8
ENCODING 7848
SWIDTH 577 0
DWIDTH 7 0
BBX 8 12 0 0
BITMAP
03
01
0C
12
08
0C
14
24
7E
44
84
84
ENDCHAR
STARTCHAR uni1EA9
ENCODING 7849
SWIDTH 517 0
DWIDTH 6 0
BBX 7 8 0 0
BITMAP
06
02
08
14
3C
60
5C
E4
ENDCHAR
STARTCHAR uni1EAA
ENCODING 7850
SWIDTH 577 0
DWIDTH 7 0
BBX 7 12 0 0
BITMAP
0E
00
0C
12
08
0C
14
24
7E
44
84
84
ENDCHAR
STARTCHAR uni1EAB
ENCODING 7851
SWIDTH 517 0
DWIDTH 6 0
BBX 6 7 0 0
BITMAP
1C
08
14
3C
60
5C
E4
ENDCHAR
STARTCHAR uni1EAC
ENCODING 7852
SWIDTH 577 0
DWIDTH 7 0
BBX 7 12 0 -2
BITMAP
0C
12
08
0C
14
24
7E
44
84
84
00
20
ENDCHAR
STARTCHAR uni1EAD
ENCODING 7853
SWIDTH 517 0
DWIDTH 6 0
BBX 6 8 0 -2
BITMAP
08
14
3C
60
5C
E4
00
10
ENDCHAR
STARTCHAR uni1EAE
ENCODING 7854
SWIDTH 577 0
DWIDTH 7 0
BBX 7 12 0 0
BITMAP
06
08
12
0C
08
0C
14
24
7E
44
84
84
ENDCHAR
STARTCHAR uni1EAF
ENCODING 7855
SWIDTH 517 0
DWIDTH 6 0
BBX 6 8 0 0
BITMAP
04
08
14
18
3C
60
5C
E4
ENDCHAR
STARTCHAR uni1EB0
ENCODING 7856
SWIDTH 577 0
DWIDTH 7 0
BBX 7 12 0 0
BITMAP
18
04
12
0C
08
0C
14
24
7E
44
84
84
ENDCHAR
STARTCHAR uni1EB1
ENCODING 7857
SWIDTH 517 0
DWIDTH 6 0
BBX 6 8 0 0
BITMAP
10
08
14
18
3C
60
5C
E4
ENDCHAR
STARTCHAR uni1EB2
ENCODING 7858
SWIDTH 577 0
DWIDTH 7 0
BBX 7 13 0 0
BITMAP
0C
04
00
12
0C
08
0C
14
24
7E
44
84
84
ENDCHAR
STARTCHAR uni1EB3
ENCODING 7859
SWIDTH 517 0
DWIDTH 6 0
BBX 6 9 0 0
BITMAP
08
08
00
14
18
3C
60
5C
E4
ENDCHAR
STARTCHAR uni1EB4
ENCODING 7860
SWIDTH 577 0
DWIDTH 7 0
BBX 7 12 0 0
BITMAP
1E
00
12
0C
08
0C
14
24
7E
44
84
84
ENDCHAR
STARTCHAR uni1EB5
ENCODING 7861
SWIDTH 517 0
DWIDTH 6 0
BBX 6 7 0 0
BITMAP
1C
14
18
3C
60
5C
E4
ENDCHAR
STARTCHAR uni1EB6
ENCODING 7862
SWIDTH 577 0
DWIDTH 7 0
BBX 7 12 0 -2
BITMAP
12
0C
08
0C
14
24
7E
44
84
84
00
20
ENDCHAR
STARTCHAR uni1EB7
ENCODING 7863
SWIDTH 517 0
DWIDTH 6 0
BBX 6 8 0 -2
BITMAP
14
18
3C
60
5C
E4
00
10
ENDCHAR
STARTCHAR uni1EB8
ENCODING 7864
SWIDTH 679 0
DWIDTH 8 0
BBX 7 10 1 -3
BITMAP
1E
60
40
FC
80
82
7C
00
00
30
ENDCHAR
STARTCHAR uni1EB9
ENCODING 7865
SWIDTH 413 0
DWIDTH 5 0
BBX 5 6 0 -2
BITMAP
70
F8
80
70
00
20
ENDCHAR
STARTCHAR uni1EBA
ENCODING 7866
SWIDTH 679 0
DWIDTH 8 0
BBX 7 10 1 0
BITMAP
0C
04
00
1E
60
40
FC
80
82
7C
ENDCHAR
STARTCHAR uni1EBB
ENCODING 7867
SWIDTH 413 0
DWIDTH 5 0
BBX 5 7 0 0
BITMAP
30
10
00
70
F8
80
70
ENDCHAR
STARTCHAR uni1EBC
ENCODING 7868
SWIDTH 679 0
DWIDTH 8 0
BBX 7 9 1 0
BITMAP
1A
04
1E
60
40
FC
80
82
7C
ENDCHAR
STARTCHAR uni1EBD
ENCODING 7869
SWIDTH 413 0
DWIDTH 5 0
BBX 5 5 0 0
BITMAP
38
70
F8
80
70
ENDCHAR
STARTCHAR uni1EBE
ENCODING 7870
SWIDTH 679 0
DWIDTH 8 0
BBX 9 11 1 0
BITMAP
0180
0200
0C00
1400
1A00
6000
4000
FC00
8000
8200
7C00
ENDCHAR
STARTCHAR uni1EBF
ENCODING 7871
SWIDTH 413 0
DWIDTH 5 0
BBX 7 7 0 0
BITMAP
02
14
28
70
F8
80
70
ENDCHAR
STARTCHAR uni1EC0
ENCODING 7872
SWIDTH 679 0
DWIDTH 8 0
BBX 7 11 1 0
BITMAP
0C
02
0C
14
1A
60
40
FC
80
82
7C
ENDCHAR
STARTCHAR uni1EC1
ENCODING 7873
SWIDTH 413 0
DWIDTH 5 0
BBX 5 8 0 0
BITMAP
20
18
10
28
70
F8
80
70
ENDCHAR
STARTCHAR uni1EC2
ENCODING 7874
SWIDTH 679 0
DWIDTH 8 0
BBX 8 11 1 0
BITMAP
03
01
0C
14
1A
60
40
FC
80
82
7C
ENDCHAR
STARTCHAR uni1EC3
ENCODING 7875
SWIDTH 413 0
DWIDTH 5 0
BBX 6 8 0 0
BITMAP
08
04
10
28
70
F8
80
70
ENDCHAR
STARTCHAR uni1EC4
ENCODING 7876
SWIDTH 679 0
DWIDTH 8 0
BBX 7 11 1 0
BITMAP
0E
00
0C
14
1A
60
40
FC
80
82
7C
ENDCHAR
STARTCHAR uni1EC5
ENCODING 7877
SWIDTH 413 0
DWIDTH 5 0
BBX 5 7 0 0
BITMAP
38
10
28
70
F8
80
70
ENDCHAR
STARTCHAR uni1EC6
ENCODING 7878
SWIDTH 679 0
DWIDTH 8 0
BBX 7 12 1 -3
BITMAP
0C
14
1A
60
40
FC
80
82
7C
00
00
30
ENDCHAR
STARTCHAR uni1EC7
ENCODING 7879
SWIDTH 413 0
DWIDTH 5 0
BBX 5 8 0 -2
BITMAP
10
28
70
F8
80
70
00
20
ENDCHAR
STARTCHAR uni1EC8
ENCODING 7880
SWIDTH 404 0
DWIDTH 5 0
BBX 6 10 0 0
BITMAP
18
08
00
7C
10
20
20
20
40
F8
ENDCHAR
STARTCHAR uni1EC9
ENCODING 7881
SWIDTH 250 0
DWIDTH 3 0
BBX 2 7 1 0
BITMAP
C0
40
00
00
80
80
80
ENDCHAR
STARTCHAR uni1ECA
ENCODING 7882
SWIDTH 404 0
DWIDTH 5 0
BBX 6 9 0 -2
BITMAP
7C
10
20
20
20
40
F8
00
40
ENDCHAR
STARTCHAR uni1ECB
ENCODING 7883
SWIDTH 250 0
DWIDTH 3 0
BBX 2 7 1 -2
BITMAP
C0
00
80
80
80
00
80
ENDCHAR
STARTCHAR uni1ECC
ENCODING 7884
SWIDTH 830 0
DWIDTH 10 0
BBX 10 10 0 -3
BITMAP
1E00
2580
4040
8040
C080
4180
3E00
0000
0000
1000
ENDCHAR
STARTCHAR uni1ECD
ENCODING 7885
SWIDTH 440 0
DWIDTH 5 0
BBX 5 6 0 -2
BITMAP
60
B8
88
F0
00
C0
ENDCHAR
STARTCHAR uni1ECE
ENCODING 7886
SWIDTH 830 0
DWIDTH 10 0
BBX 10 10 0 0
BITMAP
0400
0200
0400
1E00
2580
4040
8040
C080
4180
3E00
ENDCHAR
STARTCHAR uni1ECF
ENCODING 7887
SWIDTH 440 0
DWIDTH 5 0
BBX 5 7 0 0
BITMAP
20
10
00
60
B8
88
F0
ENDCHAR
STARTCHAR uni1ED0
ENCODING 7888
SWIDTH 830 0
DWIDTH 10 0
BBX 10 10 0 0
BITMAP
00C0
0500
0B00
1E00
2580
4040
8040
C080
4180
3E00
ENDCHAR
STARTCHAR uni1ED1
ENCODING 7889
SWIDTH 440 0
DWIDTH 5 0
BBX 7 7 0 0
BITMAP
02
24
58
60
B8
88
F0
ENDCHAR
STARTCHAR uni1ED2
ENCODING 7890
SWIDTH 830 0
DWIDTH 10 0
BBX 10 10 0 0
BITMAP
0600
0500
0B00
1E00
2580
4040
8040
C080
4180
3E00
ENDCHAR
STARTCHAR uni1ED3
ENCODING 7891
SWIDTH 440 0
DWIDTH 5 0
BBX 5 7 0 0
BITMAP
20
10
78
60
B8
88
F0
ENDCHAR
STARTCHAR uni1ED4
ENCODING 7892
SWIDTH 830 0
DWIDTH 10 0
BBX 10 11 0 0
BITMAP
0180
0080
0400
0B00
1E00
2580
4040
8040
C080
4180
3E00
ENDCHAR
STARTCHAR uni1ED5
ENCODING 7893
SWIDTH 440 0
DWIDTH 5 0
BBX 5 7 0 0
BITMAP
08
28
58
60
B8
88
F0
ENDCHAR
STARTCHAR uni1ED6
ENCODING 7894
SWIDTH 830 0
DWIDTH 10 0
BBX 10 11 0 0
BITMAP
0700
0000
0400
0B00
1E00
2580
4040
8040
C080
4180
3E00
ENDCHAR
STARTCHAR uni1ED7
ENCODING 7895
SWIDTH 440 0
DWIDTH 5 0
BBX 5 6 0 0
BITMAP
38
58
60
B8
88
F0
ENDCHAR
STARTCHAR uni1ED8
ENCODING 7896
SWIDTH 830 0
DWIDTH 10 0
BBX 10 12 0 -3
BITMAP
0400
0B00
1E00
2580
4040
8040
C080
4180
3E00
0000
0000
1000
ENDCHAR
STARTCHAR uni1ED9
ENCODING 7897
SWIDTH 440 0
DWIDTH 5 0
BBX 5 8 0 -2
BITMAP
20
58
60
B8
88
F0
00
C0
ENDCHAR
STARTCHAR uni1EDA
ENCODING 7898
SWIDTH 830 0
DWIDTH 10 0
BBX 10 9 0 0
BITMAP
0200
0400
1E40
2580
4040
8040
C080
4180
3E00
ENDCHAR
STARTCHAR uni1EDB
ENCODING 7899
SWIDTH 440 0
DWIDTH 5 0
BBX 5 6 0 0
BITMAP
10
20
68
B8
88
F0
ENDCHAR
STARTCHAR uni1EDC
ENCODING 7900
SWIDTH 830 0
DWIDTH 10 0
BBX 10 9 0 0
BITMAP
0C00
0200
1E40
2580
4040
8040
C080
4180
3E00
ENDCHAR
STARTCHAR uni1EDD
ENCODING 7901
SWIDTH 440 0
DWIDTH 5 0
BBX 5 6 0 0
BITMAP
40
20
68
B8
88
F0
ENDCHAR
STARTCHAR uni1EDE
ENCODING 7902
SWIDTH 830 0
DWIDTH 10 0
BBX 10 10 0 0
BITMAP
0400
0200
0400
1E40
2580
4040
8040
C080
4180
3E00
ENDCHAR
STARTCHAR uni1EDF
ENCODING 7903
SWIDTH 440 0
DWIDTH 5 0
BBX 5 7 0 0
BITMAP
20
10
00
68
B8
88
F0
ENDCHAR
STARTCHAR uni1EE0
ENCODING 7904
SWIDTH 830 0
DWIDTH 10 0
BBX 10 9 0 0
BITMAP
0D00
0200
1E40
2580
4040
8040
C080
4180
3E00
ENDCHAR
STARTCHAR uni1EE1
ENCODING 7905
SWIDTH 440 0
DWIDTH 5 0
BBX 5 5 0 0
BITMAP
70
68
B8
88
F0
ENDCHAR
STARTCHAR uni1EE2
ENCODING 7906
SWIDTH 830 0
DWIDTH 10 0
BBX 10 10 0 -3
BITMAP
1E40
2580
4040
8040
C080
4180
3E00
0000
0000
1000
ENDCHAR
STARTCHAR uni1EE3
ENCODING 7907
SWIDTH 440 0
DWIDTH 5 0
BBX 5 6 0 -2
BITMAP
68
B8
88
F0
00
C0
ENDCHAR
STARTCHAR uni1EE4
ENCODING 7908
SWIDTH 549 0
DWIDTH 7 0
BBX 7 9 0 -2
BITMAP
30
22
44
4C
48
98
68
00
20
ENDCHAR
STARTCHAR uni1EE5
ENCODING 7909
SWIDTH 475 0
DWIDTH 6 0
BBX 6 6 0 -2
BITMAP
20
48
58
EC
00
20
ENDCHAR
STARTCHAR uni1EE6
ENCODING 7910
SWIDTH 549 0
DWIDTH 7 0
BBX 7 10 0 0
BITMAP
04
06
00
30
22
44
4C
48
98
68
ENDCHAR
STARTCHAR uni1EE7
ENCODING 7911
SWIDTH 475 0
DWIDTH 6 0
BBX 6 7 0 0
BITMAP
18
08
00
20
48
58
EC
ENDCHAR
STARTCHAR uni1EE8
ENCODING 7912
SWIDTH 549 0
DWIDTH 7 0
BBX 8 9 0 0
BITMAP
02
04
31
23
44
4C
48
98
68
ENDCHAR
STARTCHAR uni1EE9
ENCODING 7913
SWIDTH 475 0
DWIDTH 6 0
BBX 6 6 0 0
BITMAP
04
18
24
4C
58
EC
ENDCHAR
STARTCHAR uni1EEA
ENCODING 7914
SWIDTH 549 0
DWIDTH 7 0
BBX 8 9 0 0
BITMAP
08
04
31
23
44
4C
48
98
68
ENDCHAR
STARTCHAR uni1EEB
ENCODING 7915
SWIDTH 475 0
DWIDTH 6 0
BBX 6 6 0 0
BITMAP
20
18
24
4C
58
EC
ENDCHAR
STARTCHAR uni1EEC
ENCODING 7916
SWIDTH 549 0
DWIDTH 7 0
BBX 8 10 0 0
BITMAP
04
06
00
31
23
44
4C
48
98
68
ENDCHAR
STARTCHAR uni1EED
ENCODING 7917
SWIDTH 475 0
DWIDTH 6 0
BBX 6 7 0 0
BITMAP
18
08
00
24
4C
58
EC
ENDCHAR
STARTCHAR uni1EEE
ENCODING 7918
SWIDTH 549 0
DWIDTH 7 0
BBX 8 9 0 0
BITMAP
0D
02
31
23
44
4C
48
98
68
ENDCHAR
STARTCHAR uni1EEF
ENCODING 7919
SWIDTH 475 0
DWIDTH 6 0
BBX 6 5 0 0
BITMAP
1C
24
4C
58
EC
ENDCHAR
STARTCHAR uni1EF0
ENCODING 7920
SWIDTH 549 0
DWIDTH 7 0
BBX 8 9 0 -2
BITMAP
31
23
44
4C
48
98
68
00
20
ENDCHAR
STARTCHAR uni1EF1
ENCODING 7921
SWIDTH 475 0
DWIDTH 6 0
BBX 6 6 0 -2
BITMAP
24
4C
58
EC
00
20
ENDCHAR
STARTCHAR Ygrave
ENCODING 7922
SWIDTH 537 0
DWIDTH 6 0
BBX 7 12 0 -3
BITMAP
20
10
00
06
86
44
4C
28
10
10
20
40
ENDCHAR
STARTCHAR ygrave
ENCODING 7923
SWIDTH 494 0
DWIDTH 6 0
BBX 5 8 0 -2
BITMAP
80
60
08
88
50
30
20
40
ENDCHAR
STARTCHAR uni1EF4
ENCODING 7924
SWIDTH 537 0
DWIDTH 6 0
BBX 7 9 0 -3
BITMAP
06
86
44
4C
28
10
10
28
40
ENDCHAR
STARTCHAR uni1EF5
ENCODING 7925
SWIDTH 494 0
DWIDTH 6 0
BBX 5 6 0 -2
BITMAP
08
88
50
30
20
48
ENDCHAR
STARTCHAR uni1EF6
ENCODING 7926
SWIDTH 537 0
DWIDTH 6 0
BBX 7 13 0 -3
BITMAP
30
10
00
00
06
86
44
4C
28
10
10
20
40
ENDCHAR
STARTCHAR uni1EF7
ENCODING 7927
SWIDTH 494 0
DWIDTH 6 0
BBX 5 9 0 -2
BITMAP
60
20
00
08
88
50
30
20
40
ENDCHAR
STARTCHAR uni1EF8
ENCODING 7928
SWIDTH 537 0
DWIDTH 6 0
BBX 7 12 0 -3
BITMAP
78
00
00
06
86
44
4C
28
10
10
20
40
ENDCHAR
STARTCHAR uni1EF9
ENCODING 7929
SWIDTH 494 0
DWIDTH 6 0
BBX 5 7 0 -2
BITMAP
70
08
88
50
30
20
40
ENDCHAR
STARTCHAR uni2010
ENCODING 8208
SWIDTH 407 0
DWIDTH 5 0
BBX 5 1 0 1
BITMAP
F8
ENDCHAR
STARTCHAR endash
ENCODING 8211
SWIDTH 508 0
DWIDTH 6 0
BBX 6 1 0 1
BITMAP
FC
ENDCHAR
STARTCHAR emdash
ENCODING 8212
SWIDTH 677 0
DWIDTH 8 0
BBX 8 1 0 1
BITMAP
FF
ENDCHAR
STARTCHAR quoteleft
ENCODING 8216
SWIDTH 199 0
DWIDTH 2 0
BBX 2 2 0 4
BITMAP
40
C0
ENDCHAR
STARTCHAR quoteright
ENCODING 8217
SWIDTH 199 0
DWIDTH 2 0
BBX 1 2 1 4
BITMAP
80
80
ENDCHAR
STARTCHAR quotesinglbase
ENCODING 8218
SWIDTH 286 0
DWIDTH 3 0
BBX 2 2 1 -1
BITMAP
C0
80
ENDCHAR
STARTCHAR quotedblleft
ENCODING 8220
SWIDTH 396 0
DWIDTH 5 0
BBX 4 2 0 5
BITMAP
50
F0
ENDCHAR
STARTCHAR quotedblright
ENCODING 8221
SWIDTH 583 0
DWIDTH 7 0
BBX 4 2 3 5
BITMAP
F0
A0
ENDCHAR
STARTCHAR quotedblbase
ENCODING 8222
SWIDTH 434 0
DWIDTH 5 0
BBX 4 2 1 -1
BITMAP
F0
A0
ENDCHAR
STARTCHAR dagger
ENCODING 8224
SWIDTH 279 0
DWIDTH 3 0
BBX 4 10 0 -1
BITMAP
20
20
20
F0
20
20
20
20
20
20
ENDCHAR
STARTCHAR daggerdbl
ENCODING 8225
SWIDTH 600 0
DWIDTH 7 0
BBX 4 9 0 -1
BITMAP
20
20
F0
20
F0
20
20
20
20
ENDCHAR
STARTCHAR bullet
ENCODING 8226
SWIDTH 508 0
DWIDTH 6 0
BBX 4 4 1 2
BITMAP
20
F0
F0
60
ENDCHAR
STARTCHAR ellipsis
ENCODING 8230
SWIDTH 699 0
DWIDTH 8 0
BBX 7 1 1 0
BITMAP
D6
ENDCHAR
STARTCHAR perthousand
ENCODING 8240
SWIDTH 787 0
DWIDTH 9 0
BBX 9 7 0 0
BITMAP
3E00
5400
6800
5000
2D80
5680
9B00
ENDCHAR
STARTCHAR minute
ENCODING 8242
SWIDTH 206 0
DWIDTH 2 0
BBX 1 2 1 4
BITMAP
80
80
ENDCHAR
STARTCHAR second
ENCODING 8243
SWIDTH 339 0
DWIDTH 4 0
BBX 3 2 1 4
BITMAP
A0
E0
ENDCHAR
STARTCHAR guilsinglleft
ENCODING 8249
SWIDTH 477 0
DWIDTH 6 0
BBX 3 5 1 2
BITMAP
20
40
80
40
40
ENDCHAR
STARTCHAR guilsinglright
ENCODING 8250
SWIDTH 477 0
DWIDTH 6 0
BBX 3 5 2 2
BITMAP
40
40
20
40
80
ENDCHAR
STARTCHAR fraction
ENCODING 8260
SWIDTH 542 0
DWIDTH 7 0
BBX 7 7 0 0
BITMAP
02
04
08
10
20
40
80
ENDCHAR
STARTCHAR uni2052
ENCODING 8274
SWIDTH 600 0
DWIDTH 7 0
BBX 6 8 1 0
BITMAP
04
08
C8
D0
20
2C
4C
C0
ENDCHAR
STARTCHAR uni2074
ENCODING 8308
SWIDTH 331 0
DWIDTH 4 0
BBX 4 4 0 3
BITMAP
30
60
F0
20
ENDCHAR
STARTCHAR colonmonetary
ENCODING 8353
SWIDTH 819 0
DWIDTH 10 0
BBX 9 10 1 -2
BITMAP
0A00
0F80
3A80
6C00
9400
9400
9580
7E00
1400
2800
ENDCHAR
STARTCHAR franc
ENCODING 8355
SWIDTH 770 0
DWIDTH 9 0
BBX 9 8 1 0
BITMAP
7800
9E00
9180
3000
7800
F000
4000
2000
ENDCHAR
STARTCHAR lira
ENCODING 8356
SWIDTH 734 0
DWIDTH 9 0
BBX 9 9 0 0
BITMAP
0600
0A00
1000
1000
2000
7C00
7800
2080
DF00
ENDCHAR
STARTCHAR uni20A6
ENCODING 8358
SWIDTH 850 0
DWIDTH 10 0
BBX 9 7 1 0
BITMAP
6100
6100
7100
FF80
8A00
FF80
8200
ENDCHAR
STARTCHAR peseta
ENCODING 8359
SWIDTH 801 0
DWIDTH 10 0
BBX 9 7 0 0
BITMAP
3F00
FF80
2300
5C00
4000
8000
8000
ENDCHAR
STARTCHAR uni20A9
ENCODING 8361
SWIDTH 1074 0
DWIDTH 13 0
BBX 13 7 0 0
BITMAP
6008
A110
2320
7FF0
7FF0
2180
6180
ENDCHAR
STARTCHAR dong
ENCODING 8363
SWIDTH 563 0
DWIDTH 7 0
BBX 8 6 0 0
BITMAP
06
0F
1C
64
CC
F4
ENDCHAR
STARTCHAR Euro
ENCODING 8364
SWIDTH 698 0
DWIDTH 8 0
BBX 7 7 1 0
BITMAP
0E
32
20
D8
F8
42
7C
ENDCHAR
STARTCHAR uni20AD
ENCODING 8365
SWIDTH 773 0
DWIDTH 9 0
BBX 9 8 1 -1
BITMAP
0380
4600
5800
F000
FE00
9000
8800
8600
ENDCHAR
STARTCHAR uni20B1
ENCODING 8369
SWIDTH 801 0
DWIDTH 10 0
BBX 9 7 0 0
BITMAP
3F00
FF80
2100
DE80
4000
8000
8000
ENDCHAR
STARTCHAR uni20B2
ENCODING 8370
SWIDTH 882 0
DWIDTH 11 0
BBX 10 10 0 -2
BITMAP
0400
0F80
3400
6400
C7C0
8980
4900
3E00
0800
0800
ENDCHAR
STARTCHAR uni20B5
ENCODING 8373
SWIDTH 819 0
DWIDTH 10 0
BBX 9 10 1 -2
BITMAP
0400
0F80
3880
6800
8800
8800
8980
7E00
0800
1000
ENDCHAR
STARTCHAR uni20B9
ENCODING 8377
SWIDTH 775 0
DWIDTH 9 0
BBX 9 8 0 -1
BITMAP
FF80
0100
FF80
0200
1C00
1000
0C00
0200
ENDCHAR
STARTCHAR uni20BA
ENCODING 8378
SWIDTH 699 0
DWIDTH 8 0
BBX 8 8 0 0
BITMAP
08
10
1C
F4
78
23
26
38
ENDCHAR
STARTCHAR uni20BC
ENCODING 8380
SWIDTH 750 0
DWIDTH 9 0
BBX 8 9 0 0
BITMAP
02
04
1E
35
65
49
49
89
89
ENDCHAR
STARTCHAR uni20BD
ENCODING 8381
SWIDTH 741 0
DWIDTH 9 0
BBX 9 7 0 0
BITMAP
7F00
3080
2300
FC00
4000
F000
8000
ENDCHAR
STARTCHAR uni2116
ENCODING 8470
SWIDTH 1128 0
DWIDTH 14 0
BBX 13 7 1 0
BITMAP
4100
4240
62B0
9318
92E0
8A00
8400
ENDCHAR
STARTCHAR trademark
ENCODING 8482
SWIDTH 729 0
DWIDTH 9 0
BBX 7 4 1 4
BITMAP
FA
5A
AE
80
ENDCHAR
STARTCHAR partialdiff
ENCODING 8706
SWIDTH 563 0
DWIDTH 7 0
BBX 6 8 0 0
BITMAP
08
04
04
3C
44
C8
98
60
ENDCHAR
STARTCHAR minus
ENCODING 8722
SWIDTH 407 0
DWIDTH 5 0
BBX 5 1 0 2
BITMAP
F8
ENDCHAR
STARTCHAR uni2215
ENCODING 8725
SWIDTH 542 0
DWIDTH 7 0
BBX 7 7 0 0
BITMAP
02
04
08
10
20
40
80
ENDCHAR
STARTCHAR uni2219
ENCODING 8729
SWIDTH 348 0
DWIDTH 4 0
BBX 2 3 2 3
BITMAP
80
C0
C0
ENDCHAR
STARTCHAR infinity
ENCODING 8734
SWIDTH 763 0
DWIDTH 9 0
BBX 9 4 0 2
BITMAP
3B80
4C80
8900
7600
ENDCHAR
STARTCHAR approxequal
ENCODING 8776
SWIDTH 577 0
DWIDTH 7 0
BBX 4 3 1 -1
BITMAP
70
10
F0
ENDCHAR
STARTCHAR notequal
ENCODING 8800
SWIDTH 430 0
DWIDTH 5 0
BBX 5 8 0 -1
BITMAP
08
08
F8
60
20
F8
40
80
ENDCHAR
STARTCHAR lessequal
ENCODING 8804
SWIDTH 446 0
DWIDTH 5 0
BBX 3 6 1 0
BITMAP
20
40
C0
40
20
C0
ENDCHAR
STARTCHAR greaterequal
ENCODING 8805
SWIDTH 477 0
DWIDTH 6 0
BBX 3 7 1 0
BITMAP
80
40
20
20
40
80
E0
ENDCHAR
STARTCHAR uni27E8
ENCODING 10216
SWIDTH 269 0
DWIDTH 3 0
BBX 3 11 1 -1
BITMAP
20
20
40
40
80
80
80
80
80
40
40
ENDCHAR
STARTCHAR uni27E9
ENCODING 10217
SWIDTH 274 0
DWIDTH 3 0
BBX 3 11 0 -1
BITMAP
40
40
20
20
20
20
20
20
40
40
80
ENDCHAR
STARTCHAR uniF8FF
ENCODING 63743
SWIDTH 473 0
DWIDTH 6 0
BBX 4 7 1 0
BITMAP
70
90
90
D0
E0
90
60
ENDCHAR
STARTCHAR fi
ENCODING 64257
SWIDTH 561 0
DWIDTH 7 0
BBX 7 6 0 0
BITMAP
38
66
F0
4C
88
84
ENDCHAR
STARTCHAR fl
ENCODING 64258
SWIDTH 577 0
DWIDTH 7 0
BBX 7 6 0 0
BITMAP
3A
66
F4
48
88
88
ENDCHAR
STARTCHAR .notdef
ENCODING -1
SWIDTH 349 0
DWIDTH 4 0
BBX 4 8 0 0
BITMAP
F0
90
F0
B0
B0
D0
90
F0
ENDCHAR
STARTCHAR NULL
ENCODING -1
SWIDTH 600 0
DWIDTH 7 0
BBX 1 1 0 0
BITMAP
00
ENDCHAR
STARTCHAR acutecomb.case
ENCODING -1
SWIDTH 0 0
DWIDTH 0 0
BBX 3 1 0 5
BITMAP
E0
ENDCHAR
STARTCHAR uni0306.case
ENCODING -1
SWIDTH 0 0
DWIDTH 0 0
BBX 3 2 0 4
BITMAP
A0
40
ENDCHAR
STARTCHAR uni03060301
ENCODING -1
SWIDTH 0 0
DWIDTH 0 0
BBX 3 4 0 4
BITMAP
20
40
A0
C0
ENDCHAR
STARTCHAR uni03060301.case
ENCODING -1
SWIDTH 0 0
DWIDTH 0 0
BBX 3 4 0 4
BITMAP
20
40
A0
40
ENDCHAR
STARTCHAR uni03060300
ENCODING -1
SWIDTH 0 0
DWIDTH 0 0
BBX 3 4 0 4
BITMAP
80
40
A0
C0
ENDCHAR
STARTCHAR uni03060300.case
ENCODING -1
SWIDTH 0 0
DWIDTH 0 0
BBX 3 4 0 4
BITMAP
80
40
A0
40
ENDCHAR
STARTCHAR uni03060309
ENCODING -1
SWIDTH 0 0
DWIDTH 0 0
BBX 3 5 0 4
BITMAP
60
40
00
A0
C0
ENDCHAR
STARTCHAR uni03060309.case
ENCODING -1
SWIDTH 0 0
DWIDTH 0 0
BBX 3 5 0 4
BITMAP
60
40
00
A0
40
ENDCHAR
STARTCHAR uni03060303
ENCODING -1
SWIDTH 0 0
DWIDTH 0 0
BBX 3 3 0 4
BITMAP
E0
A0
C0
ENDCHAR
STARTCHAR uni03060303.case
ENCODING -1
SWIDTH 0 0
DWIDTH 0 0
BBX 3 4 0 4
BITMAP
E0
00
A0
40
ENDCHAR
STARTCHAR uni0311.case
ENCODING -1
SWIDTH 0 0
DWIDTH 0 0
BBX 3 2 0 4
BITMAP
60
A0
ENDCHAR
STARTCHAR uni030C.alt
ENCODING -1
SWIDTH 0 0
DWIDTH 0 0
BBX 2 3 0 1
BITMAP
40
40
80
ENDCHAR
STARTCHAR uni030C.alt.case
ENCODING -1
SWIDTH 0 0
DWIDTH 0 0
BBX 2 2 0 2
BITMAP
40
C0
ENDCHAR
STARTCHAR uni030C.case
ENCODING -1
SWIDTH 0 0
DWIDTH 0 0
BBX 4 2 0 4
BITMAP
90
60
ENDCHAR
STARTCHAR uni0327.case
ENCODING -1
SWIDTH 0 0
DWIDTH 0 0
BBX 2 3 0 -3
BITMAP
40
40
C0
ENDCHAR
STARTCHAR uni0302.case
ENCODING -1
SWIDTH 0 0
DWIDTH 0 0
BBX 4 2 0 4
BITMAP
60
90
ENDCHAR
STARTCHAR uni03020301
ENCODING -1
SWIDTH 0 0
DWIDTH 0 0
BBX 6 3 0 4
BITMAP
04
28
F0
ENDCHAR
STARTCHAR uni03020301.case
ENCODING -1
SWIDTH 0 0
DWIDTH 0 0
BBX 6 3 0 4
BITMAP
04
68
90
ENDCHAR
STARTCHAR uni03020300
ENCODING -1
SWIDTH 0 0
DWIDTH 0 0
BBX 4 4 0 4
BITMAP
40
30
20
F0
ENDCHAR
STARTCHAR uni03020300.case
ENCODING -1
SWIDTH 0 0
DWIDTH 0 0
BBX 4 4 0 4
BITMAP
20
10
60
90
ENDCHAR
STARTCHAR uni03020309
ENCODING -1
SWIDTH 0 0
DWIDTH 0 0
BBX 5 4 0 4
BITMAP
10
08
30
F0
ENDCHAR
STARTCHAR uni03020309.case
ENCODING -1
SWIDTH 0 0
DWIDTH 0 0
BBX 5 4 0 4
BITMAP
18
08
60
90
ENDCHAR
STARTCHAR uni03020303
ENCODING -1
SWIDTH 0 0
DWIDTH 0 0
BBX 4 3 0 4
BITMAP
70
20
F0
ENDCHAR
STARTCHAR uni03020303.case
ENCODING -1
SWIDTH 0 0
DWIDTH 0 0
BBX 4 4 0 4
BITMAP
70
00
60
90
ENDCHAR
STARTCHAR uni0312.case
ENCODING -1
SWIDTH 0 0
DWIDTH 0 0
BBX 1 1 0 5
BITMAP
80
ENDCHAR
STARTCHAR uni030F.case
ENCODING -1
SWIDTH 0 0
DWIDTH 0 0
BBX 4 3 0 4
BITMAP
C0
A0
70
ENDCHAR
STARTCHAR uni0308.case
ENCODING -1
SWIDTH 0 0
DWIDTH 0 0
BBX 3 1 0 4
BITMAP
A0
ENDCHAR
STARTCHAR uni0307.case
ENCODING -1
SWIDTH 0 0
DWIDTH 0 0
BBX 1 1 0 4
BITMAP
80
ENDCHAR
STARTCHAR f_f
ENCODING -1
SWIDTH 622 0
DWIDTH 7 0
BBX 9 6 0 0
BITMAP
3B80
6400
FF00
4800
8800
8800
ENDCHAR
STARTCHAR f_f_i
ENCODING -1
SWIDTH 872 0
DWIDTH 10 0
BBX 10 6 0 0
BITMAP
3B80
6440
FF00
48C0
8880
8880
ENDCHAR
STARTCHAR f_f_l
ENCODING -1
SWIDTH 888 0
DWIDTH 11 0
BBX 11 6 0 0
BITMAP
3BA0
6440
FFC0
4880
8880
8880
ENDCHAR
STARTCHAR gravecomb.case
ENCODING -1
SWIDTH 0 0
DWIDTH 0 0
BBX 3 1 0 5
BITMAP
E0
ENDCHAR
STARTCHAR hookabovecomb.case
ENCODING -1
SWIDTH 0 0
DWIDTH 0 0
BBX 2 2 0 5
BITMAP
C0
40
ENDCHAR
STARTCHAR uni030B.case
ENCODING -1
SWIDTH 0 0
DWIDTH 0 0
BBX 3 2 0 5
BITMAP
A0
A0
ENDCHAR
STARTCHAR i.loclTRK
ENCODING -1
SWIDTH 250 0
DWIDTH 3 0
BBX 1 5 1 0
BITMAP
80
00
80
80
80
ENDCHAR
STARTCHAR uni0304.case
ENCODING -1
SWIDTH 0 0
DWIDTH 0 0
BBX 3 1 0 5
BITMAP
E0
ENDCHAR
STARTCHAR uni0328.case
ENCODING -1
SWIDTH 0 0
DWIDTH 0 0
BBX 2 3 0 -3
BITMAP
40
80
C0
ENDCHAR
STARTCHAR periodcentered.loclCAT
ENCODING -1
SWIDTH 303 0
DWIDTH 4 0
BBX 1 1 0 3
BITMAP
80
ENDCHAR
STARTCHAR uni030A.case
ENCODING -1
SWIDTH 0 0
DWIDTH 0 0
BBX 2 2 0 4
BITMAP
C0
C0
ENDCHAR
STARTCHAR tildecomb.case
ENCODING -1
SWIDTH 0 0
DWIDTH 0 0
BBX 4 1 0 5
BITMAP
F0
ENDCHAR
ENDFONT
